<svg xmlns="http://www.w3.org/2000/svg" version="1.1" xmlns:xlink="http://www.w3.org/1999/xlink" xmlns:svgjs="http://svgjs.com/svgjs" width="512" height="512" x="0" y="0" viewBox="0 0 24 24" style="enable-background:new 0 0 512 512" xml:space="preserve" class=""><g><path xmlns="http://www.w3.org/2000/svg" id="path2" d="m5.803 12 .861.574c.835.557 1.336 1.493 1.336 2.496v2.93c0 .265.105.52.293.707.187.188.442.293.707.293h1c.552 0 1 .448 1 1s-.448 1-1 1c-.376 0-.768 0-1 0-.796 0-1.559-.316-2.121-.879-.563-.562-.879-1.325-.879-2.121 0-.979 0-2.118 0-2.93 0-.334-.167-.646-.445-.832-.885-.589-2.11-1.406-2.11-1.406-.278-.185-.445-.498-.445-.832s.167-.647.445-.832c0 0 1.225-.817 2.11-1.406.278-.186.445-.498.445-.832 0-.812 0-1.951 0-2.93 0-.796.316-1.559.879-2.121.562-.563 1.325-.879 2.121-.879h1c.552 0 1 .448 1 1 0 .265-.105.52-.293.707-.187.188-.442.293-.707.293-.376 0-.768 0-1 0-.265 0-.52.105-.707.293-.188.187-.293.442-.293.707v2.93c0 1.003-.501 1.939-1.336 2.496z" fill="#1565c0" data-original="#1565c0"></path><path xmlns="http://www.w3.org/2000/svg" id="path6" d="m18.197 12-.861-.574c-.835-.557-1.336-1.493-1.336-2.496 0-.812 0-1.951 0-2.93 0-.265-.105-.52-.293-.707-.187-.188-.442-.293-.707-.293h-1c-.552 0-1-.448-1-1s.448-1 1-1h1c.796 0 1.559.316 2.121.879.563.562.879 1.325.879 2.121v2.93c0 .334.167.646.445.832.885.589 2.11 1.406 2.11 1.406.278.185.445.498.445.832s-.167.647-.445.832c0 0-1.225.817-2.11 1.406-.278.186-.445.498-.445.832v2.93c0 .796-.316 1.559-.879 2.121-.562.563-1.325.879-2.121.879h-1c-.552 0-1-.448-1-1 0-.265.105-.52.293-.707.187-.188.442-.293.707-.293h1c.265 0 .52-.105.707-.293.188-.187.293-.442.293-.707 0-.979 0-2.118 0-2.93 0-1.003.501-1.939 1.336-2.496z" fill="#29b6f6" data-original="#29b6f6"></path></g></svg>