<svg viewBox="0 0 298 160" xmlns="http://www.w3.org/2000/svg">
  <defs></defs>
  <rect width="294" height="154" rx="8" ry="8" style="stroke: rgb(132, 73, 128); fill: rgb(255, 255, 255); stroke-width: 5px;" y="3" x="2"></rect>
  <text style="fill: rgb(126, 70, 122); font-family: &quot;Segoe UI&quot;, sans-serif; font-size: 35.7143px; font-weight: 700; line-height: 81.1538px; white-space: pre;" transform="matrix(0.7, 0, 0, 0.7, 234.653549, 69.674187)"><tspan x="-314.028" y="-36.957">Community and Topics</tspan><tspan x="-314.028" dy="1.2em">​</tspan></text>
  <g transform="matrix(2.391304, 0, 0, 2.391304, 72.478271, 26.371164)">
    <linearGradient xmlns="http://www.w3.org/2000/svg" id="SVGID_1_" gradientUnits="userSpaceOnUse" x1="30.759" x2="49.742" y1="22.585" y2="41.568">
      <stop offset="0" stop-color="#ffddf3"></stop>
      <stop offset="1" stop-color="#7900e9"></stop>
    </linearGradient>
    <path xmlns="http://www.w3.org/2000/svg" d="m40.882 39.79h-11.442c-.542 0-1-.458-1-1v-13.48c0-.542.458-1 1-1h21.56c.552 0 1 .448 1 1v13.48c0 .552-.448 1-1 1h-4.02v4.538z" fill="url(#SVGID_1_)" data-original="url(#SVGID_1_)"></path>
    <g xmlns="http://www.w3.org/2000/svg">
      <path d="m38.443 29.313h-6c-.552 0-1-.447-1-1s.448-1 1-1h6c.553 0 1 .447 1 1s-.447 1-1 1z" fill="#000000" data-original="#541491"></path>
    </g>
    <g xmlns="http://www.w3.org/2000/svg">
      <path d="m42.443 33.313h-10c-.552 0-1-.447-1-1s.448-1 1-1h10c.553 0 1 .447 1 1s-.447 1-1 1z" fill="#000000" data-original="#541491"></path>
    </g>
    <g xmlns="http://www.w3.org/2000/svg">
      <path d="m37.558 23.313c-.553 0-1-.447-1-1v-3.621c0-.553.447-1 1-1s1 .447 1 1v3.621c0 .553-.448 1-1 1z" fill="#000000" data-original="#541491"></path>
    </g>
    <g xmlns="http://www.w3.org/2000/svg">
      <path d="m26.443 36.167h-2.665c-.552 0-1-.447-1-1s.448-1 1-1h2.665c.552 0 1 .447 1 1s-.447 1-1 1z" fill="#000000" data-original="#541491"></path>
    </g>
    <g xmlns="http://www.w3.org/2000/svg">
      <path d="m15.017 36.167h-2.017c-.552 0-1-.447-1-1s.448-1 1-1h2.017c.552 0 1 .447 1 1s-.448 1-1 1z" fill="#000000" data-original="#541491"></path>
    </g>
    <g xmlns="http://www.w3.org/2000/svg">
      <path d="m15.018 42.687c-.306 0-.607-.14-.803-.403-.33-.442-.238-1.069.205-1.399l8.762-6.52c.445-.327 1.07-.236 1.399.206.33.442.238 1.069-.205 1.399l-8.762 6.52c-.179.132-.388.197-.596.197z" fill="#000000" data-original="#541491"></path>
    </g>
    <g xmlns="http://www.w3.org/2000/svg">
      <path d="m15.017 42.687c-.552 0-1-.447-1-1v-6.52c0-.553.448-1 1-1s1 .447 1 1v6.52c0 .552-.448 1-1 1z" fill="#000000" data-original="#541491"></path>
    </g>
    <g xmlns="http://www.w3.org/2000/svg">
      <path d="m13 36.167c-2.206 0-4-1.794-4-4 0-.553.448-1 1-1s1 .447 1 1c0 1.103.897 2 2 2 .552 0 1 .447 1 1s-.448 1-1 1z" fill="#000000" data-original="#541491"></path>
    </g>
    <g xmlns="http://www.w3.org/2000/svg">
      <path d="m10 33.167c-.552 0-1-.447-1-1v-13.475c0-.553.448-1 1-1s1 .447 1 1v13.475c0 .553-.448 1-1 1z" fill="#000000" data-original="#541491"></path>
    </g>
    <g xmlns="http://www.w3.org/2000/svg">
      <path d="m37.558 19.692c-.553 0-1-.447-1-1 0-1.103-.897-2-2-2-.553 0-1-.447-1-1s.447-1 1-1c2.206 0 4 1.794 4 4 0 .553-.448 1-1 1z" fill="#000000" data-original="#541491"></path>
    </g>
    <g xmlns="http://www.w3.org/2000/svg">
      <path d="m34.558 16.692h-21.558c-.552 0-1-.447-1-1s.448-1 1-1h21.558c.553 0 1 .447 1 1s-.448 1-1 1z" fill="#000000" data-original="#541491"></path>
    </g>
    <g xmlns="http://www.w3.org/2000/svg">
      <path d="m10 19.692c-.552 0-1-.447-1-1 0-2.206 1.794-4 4-4 .552 0 1 .447 1 1s-.448 1-1 1c-1.103 0-2 .897-2 2 0 .553-.448 1-1 1z" fill="#000000" data-original="#541491"></path>
    </g>
    <g xmlns="http://www.w3.org/2000/svg">
      <path d="m51 42.787h-2.017c-.553 0-1-.447-1-1s.447-1 1-1h2.017c.553 0 1 .447 1 1s-.447 1-1 1z" fill="#000000" data-original="#541491"></path>
    </g>
    <g xmlns="http://www.w3.org/2000/svg">
      <path d="m40.222 42.787h-10.779c-.552 0-1-.447-1-1s.448-1 1-1h10.778c.553 0 1 .447 1 1s-.447 1-.999 1z" fill="#000000" data-original="#541491"></path>
    </g>
    <g xmlns="http://www.w3.org/2000/svg">
      <path d="m48.982 49.308c-.207 0-.417-.064-.596-.198l-8.762-6.521c-.443-.329-.535-.956-.205-1.398.329-.441.957-.536 1.398-.205l8.762 6.521c.443.329.535.956.205 1.398-.195.263-.496.403-.802.403z" fill="#000000" data-original="#541491"></path>
    </g>
    <g xmlns="http://www.w3.org/2000/svg">
      <path d="m48.983 49.308c-.553 0-1-.447-1-1v-6.521c0-.553.447-1 1-1s1 .447 1 1v6.521c0 .552-.447 1-1 1z" fill="#000000" data-original="#541491"></path>
    </g>
    <g xmlns="http://www.w3.org/2000/svg">
      <path d="m51 42.787c-.553 0-1-.447-1-1s.447-1 1-1c1.103 0 2-.897 2-2 0-.553.447-1 1-1s1 .447 1 1c0 2.206-1.794 4-4 4z" fill="#000000" data-original="#541491"></path>
    </g>
    <g xmlns="http://www.w3.org/2000/svg">
      <path d="m54 39.787c-.553 0-1-.447-1-1v-13.474c0-.553.447-1 1-1s1 .447 1 1v13.474c0 .553-.447 1-1 1z" fill="#000000" data-original="#541491"></path>
    </g>
    <g xmlns="http://www.w3.org/2000/svg">
      <path d="m29.443 42.787c-2.206 0-4-1.794-4-4 0-.553.448-1 1-1s1 .447 1 1c0 1.103.897 2 2 2 .552 0 1 .447 1 1s-.447 1-1 1z" fill="#000000" data-original="#541491"></path>
    </g>
    <g xmlns="http://www.w3.org/2000/svg">
      <path d="m26.443 39.787c-.552 0-1-.447-1-1v-13.474c0-.553.448-1 1-1s1 .447 1 1v13.474c0 .553-.447 1-1 1z" fill="#000000" data-original="#541491"></path>
    </g>
    <g xmlns="http://www.w3.org/2000/svg">
      <path d="m26.443 26.313c-.552 0-1-.447-1-1 0-2.206 1.794-4 4-4 .552 0 1 .447 1 1s-.448 1-1 1c-1.103 0-2 .897-2 2 0 .553-.447 1-1 1z" fill="#000000" data-original="#541491"></path>
    </g>
    <g xmlns="http://www.w3.org/2000/svg">
      <path d="m51 23.313h-21.557c-.552 0-1-.447-1-1s.448-1 1-1h21.557c.553 0 1 .447 1 1s-.447 1-1 1z" fill="#000000" data-original="#541491"></path>
    </g>
    <g xmlns="http://www.w3.org/2000/svg">
      <path d="m54 26.313c-.553 0-1-.447-1-1 0-1.103-.897-2-2-2-.553 0-1-.447-1-1s.447-1 1-1c2.206 0 4 1.794 4 4 0 .553-.447 1-1 1z" fill="#000000" data-original="#541491"></path>
    </g>
  </g>
</svg>