<svg viewBox="0 0 298 160" xmlns="http://www.w3.org/2000/svg" xmlns:xlink="http://www.w3.org/1999/xlink">
  <defs></defs>
  <rect width="294" height="154" rx="8" ry="8" style="stroke: rgb(132, 73, 128); fill: rgb(255, 255, 255); stroke-width: 5px;" y="3" x="2"></rect>
  <text style="fill: rgb(126, 70, 122); font-family: &quot;Segoe UI&quot;, sans-serif; font-size: 37.1429px; font-weight: 700; line-height: 81.1538px; white-space: pre;" transform="matrix(0.7, 0, 0, 0.7, 238.657562, 69.674187)"><tspan x="-314.028" y="-36.957">Introduction to JSON</tspan><tspan x="-314.028" dy="1.2em">​</tspan></text>
  <g transform="matrix(0.20002, 0, 0, 0.20002, 97.794876, 50.559189)">
    <linearGradient xmlns="http://www.w3.org/2000/svg" id="SVGID_1_" gradientUnits="userSpaceOnUse" x1="256.038" x2="256.038" y1="454.135" y2="108.676">
      <stop stop-opacity="1" stop-color="#754272" offset="0"></stop>
      <stop stop-opacity="1" stop-color="#ffaaf9" offset="1"></stop>
    </linearGradient>
    <linearGradient xmlns="http://www.w3.org/2000/svg" id="lg1">
      <stop offset="0" stop-color="#e2dec3"></stop>
      <stop offset="0.9944" stop-color="#fff"></stop>
    </linearGradient>
    <linearGradient xmlns="http://www.w3.org/2000/svg" id="SVGID_2_" gradientUnits="userSpaceOnUse" x1="150.16" x2="150.16" y1="417.617" y2="57.878" xlink:href="#lg1"></linearGradient>
    <linearGradient xmlns="http://www.w3.org/2000/svg" id="SVGID_3_" gradientUnits="userSpaceOnUse" x1="361.914" x2="361.914" y1="417.617" y2="57.878" xlink:href="#lg1"></linearGradient>
    <g xmlns="http://www.w3.org/2000/svg" id="_x31_1_Knowledge">
      <g>
        <path d="m503.044 133.015v260.271c0 13.442-10.897 24.34-24.34 24.34h-186.116c0 20.202-16.389 36.509-36.591 36.509-20.121 0-36.509-16.308-36.509-36.509h-186.116c-13.442 0-24.34-10.897-24.34-24.34v-260.271c0-13.442 10.897-24.34 24.34-24.34h445.333c13.442.001 24.339 10.898 24.339 24.34z" fill="url(#SVGID_1_)" data-original="url(#SVGID_1_)"></path>
        <path d="m256.037 114.346v303.271c0-31.236-25.232-56.468-56.387-56.468h-155.367v-303.271h155.367c31.155 0 56.387 25.232 56.387 56.468z" fill="url(#SVGID_2_)" data-original="url(#SVGID_2_)"></path>
        <path d="m256.037 114.346v303.271c0-31.236 25.232-56.468 56.387-56.468h155.367v-303.271h-155.367c-31.155 0-56.387 25.232-56.387 56.468z" fill="url(#SVGID_3_)" data-original="url(#SVGID_3_)"></path>
        <g fill="#1e2e49">
          <path d="m33.38 425.599h178.874c3.766 20.729 21.951 36.494 43.746 36.494 21.842 0 40.058-15.765 43.831-36.494h178.874c17.796 0 32.269-14.512 32.269-32.346v-260.235c0-17.796-14.473-32.269-32.269-32.269h-2.949v-42.873c0-4.404-3.564-7.968-7.968-7.968h-155.367c-24.264 0-45.421 13.527-56.382 33.436-10.962-19.909-32.121-33.436-56.39-33.436h-155.367c-4.404 0-7.968 3.564-7.968 7.968v42.874h-2.934c-17.842 0-32.354 14.473-32.354 32.269v260.234c0 17.834 14.512 32.346 32.354 32.346zm279.041-359.756h147.399v287.336h-147.399c-19.282 0-36.61 8.536-48.415 22.029v-260.864c.001-26.744 21.718-48.501 48.415-48.501zm-112.772 0c41.826 0 49.381 45.299 48.064 42.874.739 7.749.172-16.257.358 266.498-11.804-13.5-29.133-22.036-48.422-22.036h-147.399c0-72.72 0-214.737 0-287.336zm-182.687 67.175c0-9.003 7.369-16.333 16.418-16.333h2.934v244.461c0 4.404 3.564 7.968 7.968 7.968h155.367c26.697 0 48.422 21.756 48.422 48.5 0 4.404 3.564 7.968 7.968 7.968s7.968-3.564 7.968-7.968c0-26.744 21.717-48.5 48.415-48.5h155.367c4.404 0 7.968-3.564 7.968-7.968v-244.46h2.949c9.003 0 16.333 7.33 16.333 16.333v260.234c0 9.05-7.33 16.411-16.333 16.411h-186.127c-4.404 0-7.968 3.564-7.968 7.968 0 15.726-12.831 28.526-28.611 28.526-15.726 0-28.526-12.8-28.526-28.526 0-4.404-3.564-7.968-7.968-7.968h-186.126c-9.05 0-16.418-7.361-16.418-16.411z" fill="#000000" data-original="#1e2e49" class=""></path>
          <path d="m134.536 125.05h31.218c4.404 0 7.968-3.564 7.968-7.968s-3.564-7.968-7.968-7.968h-31.218c-4.404 0-7.968 3.564-7.968 7.968s3.564 7.968 7.968 7.968z" fill="#000000" data-original="#1e2e49" class=""></path>
          <path d="m95.256 171.247h109.777c4.404 0 7.968-3.564 7.968-7.968s-3.564-7.968-7.968-7.968h-109.777c-4.404 0-7.968 3.564-7.968 7.968s3.564 7.968 7.968 7.968z" fill="#000000" data-original="#1e2e49" class=""></path>
          <path d="m95.256 217.452h109.777c4.404 0 7.968-3.564 7.968-7.968s-3.564-7.968-7.968-7.968h-109.777c-4.404 0-7.968 3.564-7.968 7.968s3.564 7.968 7.968 7.968z" fill="#000000" data-original="#1e2e49" class=""></path>
          <path d="m134.536 247.713c-4.404 0-7.968 3.564-7.968 7.968s3.564 7.968 7.968 7.968h31.218c4.404 0 7.968-3.564 7.968-7.968s-3.564-7.968-7.968-7.968z" fill="#000000" data-original="#1e2e49" class=""></path>
          <path d="m95.256 309.854h109.777c4.404 0 7.968-3.564 7.968-7.968s-3.564-7.968-7.968-7.968h-109.777c-4.404 0-7.968 3.564-7.968 7.968s3.564 7.968 7.968 7.968z" fill="#000000" data-original="#1e2e49" class=""></path>
          <path d="m345.701 125.05h32.424c4.404 0 7.968-3.564 7.968-7.968s-3.564-7.968-7.968-7.968h-32.424c-4.404 0-7.968 3.564-7.968 7.968s3.564 7.968 7.968 7.968z" fill="#000000" data-original="#1e2e49" class=""></path>
          <path d="m307.021 171.247h109.785c4.404 0 7.968-3.564 7.968-7.968s-3.564-7.968-7.968-7.968h-109.785c-4.404 0-7.968 3.564-7.968 7.968s3.564 7.968 7.968 7.968z" fill="#000000" data-original="#1e2e49" class=""></path>
          <path d="m307.021 217.452h109.785c4.404 0 7.968-3.564 7.968-7.968s-3.564-7.968-7.968-7.968h-109.785c-4.404 0-7.968 3.564-7.968 7.968s3.564 7.968 7.968 7.968z" fill="#000000" data-original="#1e2e49" class=""></path>
          <path d="m345.701 247.713c-4.404 0-7.968 3.564-7.968 7.968s3.564 7.968 7.968 7.968h32.424c4.404 0 7.968-3.564 7.968-7.968s-3.564-7.968-7.968-7.968z" fill="#000000" data-original="#1e2e49" class=""></path>
          <path d="m307.021 309.854h109.785c4.404 0 7.968-3.564 7.968-7.968s-3.564-7.968-7.968-7.968h-109.785c-4.404 0-7.968 3.564-7.968 7.968s3.564 7.968 7.968 7.968z" fill="#000000" data-original="#1e2e49" class=""></path>
        </g>
      </g>
    </g>
  </g>
</svg>