<svg viewBox="0 0 298 160" xmlns="http://www.w3.org/2000/svg">
  <defs></defs>
  <g transform="matrix(1, 0, 0, 1, -376.203979, -164.718018)">
    <rect width="294" height="154" rx="8" ry="8" style="stroke: rgb(132, 73, 128); fill: rgb(255, 255, 255); stroke-width: 5px;" y="167.718" x="378.204"></rect>
    <text style="fill: rgb(126, 70, 122); font-family: &quot;Segoe UI&quot;, sans-serif; font-size: 42.8571px; font-weight: 700; line-height: 81.1538px; white-space: pre;" transform="matrix(0.7, 0, 0, 0.7, 616.642029, 234.391968)"><tspan x="-314.028" y="-36.957">JSON in a nutshell</tspan><tspan x="-314.02801513671875" dy="1.2em">​</tspan></text>
    <linearGradient id="gradient-1" gradientUnits="userSpaceOnUse" x1="38.7" y1="62.5" x2="38.7" y2="122.9034" gradientTransform="matrix(0.32, 0, 0, 0.32, 551.715454, 227.704987)">
      <stop offset="0" style="stop-color:#DE4A01"></stop>
      <stop offset="1" style="stop-color:#E15900"></stop>
    </linearGradient>
    <linearGradient id="gradient-2" gradientUnits="userSpaceOnUse" x1="156.25" y1="118.6523" x2="156.25" y2="68.182" gradientTransform="matrix(0.32, 0, 0, 0.32, 551.715454, 227.704987)">
      <stop offset="0" style="stop-color:#F08B09"></stop>
      <stop offset="1" style="stop-color:#EB770A"></stop>
    </linearGradient>
    <linearGradient id="gradient-3" gradientUnits="userSpaceOnUse" x1="149.4" y1="199.4" x2="149.4" y2="125" gradientTransform="matrix(0.32, 0, 0, 0.32, 551.715454, 227.704987)">
      <stop offset="0" style="stop-color:#D73A00"></stop>
      <stop offset="1" style="stop-color:#CD2901"></stop>
    </linearGradient>
    <linearGradient id="gradient-4" gradientUnits="userSpaceOnUse" x1="31.25" y1="183.4025" x2="31.25" y2="128.5908" gradientTransform="matrix(0.32, 0, 0, 0.32, 551.715454, 227.704987)">
      <stop offset="0" style="stop-color:#BE3106"></stop>
      <stop offset="1" style="stop-color:#AD3007"></stop>
    </linearGradient>
    <linearGradient id="SVGID_5_" gradientUnits="userSpaceOnUse" x1="151.45" y1="250" x2="151.45" y2="187.5" gradientTransform="matrix(0.32, 0, 0, 0.32, 551.715454, 227.704987)">
      <stop offset="0" style="stop-color:#844980"></stop>
      <stop offset="1" style="stop-color:#703F6C"></stop>
    </linearGradient>
    <linearGradient id="SVGID_6_" gradientUnits="userSpaceOnUse" x1="31.25" y1="249.9" x2="31.25" y2="187.4" gradientTransform="matrix(0.32, 0, 0, 0.32, 551.715454, 227.704987)">
      <stop offset="0" style="stop-color:#6F3C6D"></stop>
      <stop offset="1" style="stop-color:#663764"></stop>
    </linearGradient>
    <g transform="matrix(4.444445, 0, 0, 4.444445, 471.870636, 214.371643)">
      <path xmlns="http://www.w3.org/2000/svg" id="path2" d="M -2.297 12 L -1.436 12.574 C -0.601 13.131 -0.1 14.067 -0.1 15.07 L -0.1 18 C -0.1 18.265 0.005 18.52 0.193 18.707 C 0.38 18.895 0.635 19 0.9 19 L 1.9 19 C 2.452 19 2.9 19.448 2.9 20 C 2.9 20.552 2.452 21 1.9 21 C 1.524 21 1.132 21 0.9 21 C 0.104 21 -0.659 20.684 -1.221 20.121 C -1.784 19.559 -2.1 18.796 -2.1 18 C -2.1 17.021 -2.1 15.882 -2.1 15.07 C -2.1 14.736 -2.267 14.424 -2.545 14.238 C -3.43 13.649 -4.655 12.832 -4.655 12.832 C -4.933 12.647 -5.1 12.334 -5.1 12 C -5.1 11.666 -4.933 11.353 -4.655 11.168 C -4.655 11.168 -3.43 10.351 -2.545 9.762 C -2.267 9.576 -2.1 9.264 -2.1 8.93 C -2.1 8.118 -2.1 6.979 -2.1 6 C -2.1 5.204 -1.784 4.441 -1.221 3.879 C -0.659 3.316 0.104 3 0.9 3 L 1.9 3 C 2.452 3 2.9 3.448 2.9 4 C 2.9 4.265 2.795 4.52 2.607 4.707 C 2.42 4.895 2.165 5 1.9 5 C 1.524 5 1.132 5 0.9 5 C 0.635 5 0.38 5.105 0.193 5.293 C 0.005 5.48 -0.1 5.735 -0.1 6 L -0.1 8.93 C -0.1 9.933 -0.601 10.869 -1.436 11.426 L -2.297 12 Z" fill="#1565c0" data-original="#1565c0"></path>
      <path xmlns="http://www.w3.org/2000/svg" id="path6" d="M 26.297 12 L 25.436 11.426 C 24.601 10.869 24.1 9.933 24.1 8.93 C 24.1 8.118 24.1 6.979 24.1 6 C 24.1 5.735 23.995 5.48 23.807 5.293 C 23.62 5.105 23.365 5 23.1 5 L 22.1 5 C 21.548 5 21.1 4.552 21.1 4 C 21.1 3.448 21.548 3 22.1 3 L 23.1 3 C 23.896 3 24.659 3.316 25.221 3.879 C 25.784 4.441 26.1 5.204 26.1 6 L 26.1 8.93 C 26.1 9.264 26.267 9.576 26.545 9.762 C 27.43 10.351 28.655 11.168 28.655 11.168 C 28.933 11.353 29.1 11.666 29.1 12 C 29.1 12.334 28.933 12.647 28.655 12.832 C 28.655 12.832 27.43 13.649 26.545 14.238 C 26.267 14.424 26.1 14.736 26.1 15.07 L 26.1 18 C 26.1 18.796 25.784 19.559 25.221 20.121 C 24.659 20.684 23.896 21 23.1 21 L 22.1 21 C 21.548 21 21.1 20.552 21.1 20 C 21.1 19.735 21.205 19.48 21.393 19.293 C 21.58 19.105 21.835 19 22.1 19 L 23.1 19 C 23.365 19 23.62 18.895 23.807 18.707 C 23.995 18.52 24.1 18.265 24.1 18 C 24.1 17.021 24.1 15.882 24.1 15.07 C 24.1 14.067 24.601 13.131 25.436 12.574 L 26.297 12 Z" fill="#29b6f6" data-original="#29b6f6"></path>
      <g transform="matrix(0.041583, 0, 0, 0.041583, 1.354751, -0.201053)">
        <linearGradient xmlns="http://www.w3.org/2000/svg" id="SVGID_1_" gradientUnits="userSpaceOnUse" x1="254.402" x2="254.402" y1="429.881" y2="77.55">
          <stop offset="0" stop-color="#fe652b"></stop>
          <stop offset="1" stop-color="#ffff49"></stop>
        </linearGradient>
        <linearGradient xmlns="http://www.w3.org/2000/svg" id="SVGID_2_" gradientUnits="userSpaceOnUse" x1="254.398" x2="254.398" y1="501.916" y2="429.876">
          <stop offset="0" stop-color="#e2dec3"></stop>
          <stop offset="0.9944" stop-color="#fff"></stop>
        </linearGradient>
        <g xmlns="http://www.w3.org/2000/svg" id="_x34_0_Idea">
          <g>
            <path d="m208.318 429.881h92.216c4.635-42.481 24.601-81.805 54.833-112.802 28.911-29.643 44.875-71.98 38.79-117.791-8.413-63.335-60.269-113.866-123.776-120.857-85.012-9.357-157.017 57.04-157.017 140.158 0 39.546 16.291 75.336 42.543 100.958 30.136 29.415 48.187 68.736 52.411 110.334z" fill="url(#SVGID_1_)" data-original="url(#SVGID_1_)"></path>
            <path d="m323.578 446.741v38.309c0 9.315-7.551 16.866-16.866 16.866h-104.628c-9.315 0-16.866-7.551-16.866-16.866v-38.309c0-9.315 7.551-16.866 16.866-16.866h104.628c9.315.001 16.866 7.552 16.866 16.866z" fill="url(#SVGID_2_)" data-original="url(#SVGID_2_)"></path>
            <path d="m105.432 218.59c0 40.493 15.959 78.359 44.932 106.635 26.19 25.563 43.243 59.772 48.837 97.01-12.304 1.449-21.917 11.82-21.917 24.507v11.21h-6.709c-4.381 0-7.933 3.548-7.933 7.933s3.552 7.933 7.933 7.933h6.709v11.233c0 13.673 11.124 24.798 24.798 24.798h104.629c13.677 0 24.802-11.124 24.802-24.798v-11.233h6.709c4.381 0 7.933-3.548 7.933-7.933s-3.552-7.933-7.933-7.933h-6.709v-11.21c0-12.638-9.539-22.981-21.777-24.492 5.895-36.325 23.81-71.433 51.312-99.636 32.157-32.971 47.093-78.305 40.973-124.376-8.851-66.621-63.846-120.322-130.771-127.69-42.968-4.718-84.247 8.436-116.207 37.069-31.526 28.245-49.611 68.699-49.611 110.973zm210.215 228.153c0 2.594 0 40.603 0 38.308 0 4.927-4.009 8.932-8.936 8.932h-104.629c-4.927 0-8.932-4.005-8.932-8.932 0-2.594 0-40.603 0-38.308 0-4.927 4.005-8.932 8.932-8.932h104.629c4.927 0 8.936 4.005 8.936 8.932zm-66.631-24.798-38.777-162.436c29.794 19.383 58.539 19.39 88.326 0l-38.777 162.436zm-83.383-302.514c28.551-25.588 65.41-37.355 103.881-33.11 59.763 6.577 108.878 54.522 116.78 114.01 5.473 41.205-7.867 81.745-36.604 111.206-30.341 31.111-50.099 70.07-56.13 110.408h-17.459l43.125-180.649c.806-3.378-.678-6.887-3.66-8.661-2.986-1.782-6.775-1.402-9.358.914-36.79 33.071-66.813 33.064-103.61 0-2.591-2.316-6.372-2.696-9.358-.914-2.983 1.774-4.466 5.283-3.66 8.661l43.125 180.649h-17.351c-5.768-41.461-24.747-79.614-53.906-108.076-25.89-25.262-40.148-59.101-40.148-95.278-.002-37.774 16.158-73.921 44.333-99.16z" fill="#000000" data-original="#000000" class=""></path>
            <path d="m262.333 45.65v-35.566c0-4.385-3.552-7.933-7.933-7.933s-7.933 3.548-7.933 7.933v35.566c0 4.385 3.552 7.933 7.933 7.933s7.933-3.548 7.933-7.933z" fill="#000000" data-original="#000000" class=""></path>
            <path d="m191.965 65.877c4.048-1.673 5.969-6.314 4.292-10.365l-7.638-18.445c-1.673-4.044-6.314-5.973-10.365-4.292-4.048 1.673-5.969 6.314-4.292 10.365l7.638 18.445c1.668 4.034 6.301 5.968 10.365 4.292z" fill="#000000" data-original="#000000" class=""></path>
            <path d="m113.838 64.761c-3.099-3.099-8.119-3.099-11.217 0-3.099 3.099-3.099 8.119 0 11.217 1.256 1.256 25.979 25.979 25.146 25.146 3.099 3.099 8.119 3.099 11.217 0 3.099-3.099 3.099-8.119 0-11.217z" fill="#000000" data-original="#000000" class=""></path>
            <path d="m408.698 359.622-25.146-25.146c-1.55-1.549-3.581-2.324-5.611-2.324s-4.061.775-5.611 2.324c-3.099 3.099-3.099 8.119 0 11.217.796.796 26.805 26.801 25.15 25.146 3.099 3.099 8.119 3.099 11.217 0 3.1-3.098 3.1-8.118.001-11.217z" fill="#000000" data-original="#000000" class=""></path>
            <path d="m80.797 135.97c-4.071-1.673-8.688.248-10.365 4.292-1.677 4.052.244 8.692 4.292 10.365l18.441 7.638c4.05 1.67 8.685-.243 10.365-4.292 1.677-4.052-.244-8.692-4.292-10.365z" fill="#000000" data-original="#000000" class=""></path>
            <path d="m431.152 298.259c4.05 1.67 8.685-.243 10.365-4.292 1.677-4.052-.244-8.692-4.292-10.365l-18.441-7.638c-4.059-1.673-8.688.248-10.365 4.292-1.677 4.052.244 8.692 4.292 10.365z" fill="#000000" data-original="#000000" class=""></path>
            <path d="m47.501 208.427c-4.381 0-7.933 3.548-7.933 7.933s3.552 7.933 7.933 7.933c1.118 0 37.265 0 35.562 0 4.381 0 7.933-3.548 7.933-7.933s-3.552-7.933-7.933-7.933c-1.431 0-37.276 0-35.562 0z" fill="#000000" data-original="#000000" class=""></path>
            <path d="m464.499 224.292c4.381 0 7.933-3.548 7.933-7.933s-3.552-7.933-7.933-7.933c-1.118 0-37.273 0-35.57 0h-.004c-4.381 0-7.933 3.548-7.933 7.933s3.552 7.933 7.933 7.933h.004c1.433 0 37.284 0 35.57 0z" fill="#000000" data-original="#000000" class=""></path>
            <path d="m103.294 278.791c-1.681-4.044-6.321-5.973-10.365-4.292l-18.445 7.646c-4.048 1.681-5.969 6.321-4.292 10.365 1.686 4.062 6.338 5.959 10.365 4.292l18.445-7.646c4.048-1.681 5.969-6.321 4.292-10.365z" fill="#000000" data-original="#000000" class=""></path>
            <path d="m418.544 156.802 18.441-7.638c4.048-1.673 5.969-6.314 4.292-10.365-1.677-4.044-6.306-5.973-10.365-4.292l-18.441 7.638c-4.048 1.673-5.969 6.314-4.292 10.365 1.678 4.044 6.31 5.964 10.365 4.292z" fill="#000000" data-original="#000000" class=""></path>
            <path d="m113.396 368.136c1.216-1.216 26.013-26.009 25.15-25.146 3.099-3.099 3.099-8.119 0-11.217-3.099-3.099-8.119-3.099-11.217 0l-25.15 25.146c-3.099 3.099-3.099 8.119 0 11.217 3.098 3.098 8.118 3.098 11.217 0z" fill="#000000" data-original="#000000" class=""></path>
            <path d="m408.257 62.065c-3.099-3.099-8.119-3.099-11.217 0l-11.016 11.016c-.003.004-.008.004-.012.008l-14.126 14.123c-3.099 3.099-3.099 8.119 0 11.217 3.092 3.092 8.12 3.105 11.225 0l25.146-25.146c3.098-3.099 3.098-8.119 0-11.218z" fill="#000000" data-original="#000000" class=""></path>
            <path d="m317.673 62.344c4.059 1.674 8.695-.254 10.365-4.292l7.638-18.445c1.677-4.052-.244-8.692-4.292-10.365-4.063-1.673-8.692.248-10.365 4.292l-7.638 18.445c-1.677 4.052.244 8.692 4.292 10.365z" fill="#000000" data-original="#000000" class=""></path>
          </g>
        </g>
      </g>
    </g>
  </g>
</svg>