<svg viewBox="0 0 1016 300" width="1013.7px" height="299.9px" xmlns="http://www.w3.org/2000/svg">
  <defs>
    <clipPath id="clipPath200" clipPathUnits="userSpaceOnUse">
      <path id="path-1" d="m 4593.15,2537.11 c 1.76,-11.69 5.2,-15.95 -7.62,-20.05 -18.15,-5.78 -38.29,-8.51 -57.01,-12.47 -37.02,-7.77 -74.18,-14.97 -111.47,-21.66 -76.42,-13.77 -153.37,-25.37 -230.61,-34.67 -84.09,-10.13 -168.54,-17.51 -253.17,-22.55 -24.86,-1.46 -49.74,-2.7 -74.64,-3.74 -77.03,6.41 -155.61,0.46 -232.5,-5.93 -30.66,-2.54 -64.87,-1.58 -66.45,-36.46 -1.13,-25.22 -0.55,-50.62 -0.13,-75.97 -118.63,65.88 -236.05,133.73 -351.77,203.78 112.68,92.93 225.35,185.83 338.01,278.75 4.52,-26.68 9.02,-53.33 13.7,-79.98 2.13,-12.15 4.47,-24.28 15.17,-32.94 10.63,-8.6 25.74,-10.33 39.44,-9.36 37.56,2.61 75.15,8.75 112.56,12.92 38.62,4.28 77.28,8.35 115.99,12.24 155.84,15.65 312.09,28.05 468.56,37.17 38.84,2.25 77.71,4.31 116.56,6.02 18.88,0.82 37.75,1.61 56.65,2.34 16.71,0.64 34.67,2.79 51.36,0.75 36.89,-4.55 34.52,-45.64 38.38,-71.41 5.01,-33.43 10.03,-66.85 15.04,-100.25 1.31,-8.84 2.65,-17.68 3.95,-26.53 z"></path>
    </clipPath>
    <clipPath id="clip-1" clipPathUnits="userSpaceOnUse">
      <path id="path-4" d="m 4593.15,2537.11 c 1.76,-11.69 5.2,-15.95 -7.62,-20.05 -18.15,-5.78 -38.29,-8.51 -57.01,-12.47 -37.02,-7.77 -74.18,-14.97 -111.47,-21.66 -76.42,-13.77 -153.37,-25.37 -230.61,-34.67 -84.09,-10.13 -168.54,-17.51 -253.17,-22.55 -24.86,-1.46 -49.74,-2.7 -74.64,-3.74 -77.03,6.41 -155.61,0.46 -232.5,-5.93 -30.66,-2.54 -64.87,-1.58 -66.45,-36.46 -1.13,-25.22 -0.55,-50.62 -0.13,-75.97 -118.63,65.88 -236.05,133.73 -351.77,203.78 112.68,92.93 225.35,185.83 338.01,278.75 4.52,-26.68 9.02,-53.33 13.7,-79.98 2.13,-12.15 4.47,-24.28 15.17,-32.94 10.63,-8.6 25.74,-10.33 39.44,-9.36 37.56,2.61 75.15,8.75 112.56,12.92 38.62,4.28 77.28,8.35 115.99,12.24 155.84,15.65 312.09,28.05 468.56,37.17 38.84,2.25 77.71,4.31 116.56,6.02 18.88,0.82 37.75,1.61 56.65,2.34 16.71,0.64 34.67,2.79 51.36,0.75 36.89,-4.55 34.52,-45.64 38.38,-71.41 5.01,-33.43 10.03,-66.85 15.04,-100.25 1.31,-8.84 2.65,-17.68 3.95,-26.53 z"></path>
    </clipPath>
  </defs>
  <g transform="matrix(1, 0, 0, 1, -15.474089, -87.194748)">
    <g transform="matrix(2.88764, 0, 0, 2.88764, -504.171387, -516.772034)">
      <g transform="matrix(0.401075, 0, 0, -0.416667, 163.259125, 576.487427)" style="">
        <path id="path198" style="fill:#df7d7d;fill-opacity:1;fill-rule:nonzero;stroke:none" d="M 295.757 864.966 C 289.685 860.409 292.202 848.48 292.269 841.83 C 292.348 833.898 292.977 826.156 292.148 818.236 C 291.31 810.233 291.059 802.195 291.025 794.152 C 290.958 778.077 290.98 762.04 290.546 745.966 C 290.1 729.52 290.809 713.323 291.765 696.91 C 292.294 687.847 292.342 678.785 292.255 669.708 C 292.215 665.424 291.95 661.14 291.987 656.857 C 291.99 656.453 291.998 656.047 292.007 655.64 C 291.734 655.713 291.444 655.765 291.126 655.776 C 286.622 655.918 282.275 654.95 277.814 654.506 C 273.349 654.062 268.855 654 264.379 653.724 C 256.163 653.216 247.992 652.205 239.823 651.222 C 238.888 651.219 237.954 651.216 237.025 651.222 C 216.521 651.352 196.014 651.322 175.511 651.535 C 134.767 651.958 94.071 652.735 53.325 652.576 C 48.692 652.558 48.982 646.119 53.325 645.576 C 58.923 644.876 64.641 644.767 70.386 644.843 C 70.685 643.818 71.446 642.965 72.738 642.722 C 78.342 641.67 84.224 642.169 90.027 642.673 C 95.037 642.592 100.06 642.875 105.07 642.828 C 113.938 642.746 122.844 643.35 131.712 643.334 C 133.457 643.289 135.202 643.258 136.949 643.25 L 137.046 643.259 C 142.405 643.033 147.755 642.707 153.129 642.367 C 162.484 641.775 171.864 642.258 181.221 642.514 C 199.693 643.02 218.169 641.684 236.575 643.833 C 237.631 643.957 238.687 644.083 239.743 644.208 C 247.469 644.16 255.195 644.118 262.92 644.123 C 273.209 644.129 283.542 644.391 293.662 642.236 C 295.602 641.822 297.321 642.801 297.968 644.68 C 300.33 651.541 299.124 660.58 299.233 667.746 C 299.389 678.119 299.286 688.478 298.649 698.834 C 297.421 718.792 297.389 738.435 297.889 758.421 C 298.372 777.718 297.091 797.171 298.96 816.411 C 299.898 826.059 299.385 835.518 299.278 845.192 C 299.25 847.727 299.078 850.257 299.088 852.792 C 299.093 854.236 299.065 855.738 299.273 857.169 C 299.413 858.13 300.377 859.737 299.29 858.921 C 302.85 861.593 299.365 867.673 295.757 864.966"></path>
        <path id="path200" style="fill:#000000;fill-opacity:1;fill-rule:nonzero;stroke:none" d="M 298.858 859.807 C 298.567 852.103 298.278 844.401 298.122 836.688 C 297.789 820.165 297.229 803.647 296.872 787.125 C 296.492 769.497 296.045 751.866 295.992 734.235 C 295.95 720.035 296.456 705.832 296.71 691.63 C 296.956 677.918 297.24 664.208 297.409 650.495 C 297.486 644.365 297.378 644.5 292.49 644.482 C 288.294 644.466 284.091 644.22 279.906 643.846 C 271.609 643.106 263.312 643.437 255.016 643.63 C 244.111 643.883 233.22 643.269 222.322 643.055 C 214.027 642.891 205.732 642.735 197.436 643.331 C 189.946 643.869 182.447 643.537 174.949 643.212 C 163.256 642.707 151.558 642.447 139.855 642.677 C 137.056 642.733 134.256 642.725 131.456 642.709 C 127.254 642.686 123.063 642.857 118.875 643.346 C 109.801 644.407 100.69 643.799 91.602 644.153 C 84.016 644.448 76.434 644.102 68.83 644.796 C 63.794 645.257 58.695 646.246 53.599 645.612 C 51.887 645.4 51.625 646.554 51.413 648.17 C 50.702 653.6 50.977 654.285 55.239 652.902 C 60.758 651.112 66.35 651.304 71.916 651.042 C 85.604 650.399 99.299 649.941 113.001 650.447 C 120.897 650.737 128.794 651.21 136.69 651.197 C 152.388 651.169 168.085 650.824 183.783 650.682 C 201.183 650.524 218.576 650.649 235.956 651.999 C 240.428 652.345 244.945 651.752 249.443 651.656 C 263.547 651.352 277.632 652.589 291.735 652.47 C 291.915 652.469 292.096 652.646 292.203 652.702 C 292.203 655.781 292.327 658.827 292.183 661.852 C 291.421 677.869 290.811 693.889 290.873 709.937 C 290.954 730.88 291.048 751.823 291.189 772.765 C 291.286 787.338 291.372 801.913 291.66 816.481 C 291.805 823.819 292.315 831.151 292.793 838.471 C 293.273 845.815 293.007 853.162 293.108 860.505 C 293.124 861.631 292.656 863.045 293.906 863.722 C 294.781 864.195 298.135 863.698 298.551 863.011 C 299.138 862.041 298.898 860.888 298.858 859.807 Z M 48.584 656.039 C 46.411 656.126 46.309 656.191 46.316 658.666 C 46.379 678.499 45.734 698.326 46.145 718.167 C 46.401 730.523 46.502 742.886 46.862 755.242 C 47.415 771.63 47.154 788.037 47.632 804.435 C 48.113 820.94 48.09 837.486 47.36 854.003 C 47.081 860.344 46.806 866.686 46.591 873.031 C 46.496 875.863 46.588 875.977 48.89 875.936 C 55.087 875.824 61.283 875.605 67.481 875.48 C 75.285 875.323 83.038 876.513 90.823 876.884 C 101.12 877.376 111.393 877.27 121.677 876.114 C 132.821 874.862 143.998 873.847 155.205 874.458 C 161.992 874.828 168.771 875.535 175.539 876.181 C 184.792 877.066 193.907 876.137 203.039 874.711 C 215.731 872.73 228.412 870.67 241.251 870.716 C 246.857 870.736 252.452 871.104 258.022 871.626 C 265.543 872.332 273.003 871.689 280.48 871.103 C 281.876 870.993 283.26 870.768 284.666 870.904 C 285.359 870.97 286.069 870.949 286.761 870.853 C 290.854 870.291 291.805 868.773 291.267 863.734 C 291.241 863.491 291.163 863.245 291.183 863.008 C 291.812 855.431 290.658 847.87 291.044 840.295 C 291.188 837.482 291.118 834.694 290.885 831.875 C 290.187 823.466 290.171 815.007 290.094 806.57 C 289.823 776.697 289.639 746.823 289.519 716.948 C 289.448 699.318 289.891 681.699 290.768 664.097 C 290.906 661.322 290.646 658.518 290.583 655.728 C 290.556 654.534 290.117 653.909 289.106 653.979 C 288.806 654 288.506 653.98 288.206 653.991 C 278.908 654.327 269.628 653.679 260.343 653.264 C 254.843 653.018 249.348 653.426 243.86 653.776 C 238.053 654.146 232.263 653.828 226.476 653.444 C 215.887 652.742 205.291 652.805 194.696 652.861 C 183.401 652.919 172.106 653.1 160.812 653.262 C 155.115 653.344 149.42 653.522 143.724 653.624 C 130.024 653.87 116.348 652.687 102.651 652.613 C 89.052 652.54 75.47 653.257 61.88 653.623 C 60.592 653.658 59.257 653.841 58.036 654.311 C 54.947 655.495 51.793 655.909 48.584 656.039 Z M 296.72 865.478 C 296.422 865.505 296.121 865.501 295.821 865.513 C 293.073 865.621 292.804 865.991 293.128 869.314 C 293.174 869.786 293.332 870.24 293.422 870.708 C 293.813 872.746 293.561 873.06 291.771 873.114 C 288.278 873.218 284.784 872.62 281.294 873.069 C 272.219 874.239 263.139 874.127 254.049 873.337 C 241.145 872.215 228.288 872.646 215.455 874.834 C 207.142 876.251 198.796 877.446 190.438 878.39 C 181.943 879.349 173.429 878.335 164.999 877.293 C 152.685 875.769 140.426 876.392 128.163 877.439 C 119.586 878.171 111.023 879.053 102.422 879.165 C 92.721 879.29 83.073 877.871 73.393 877.589 C 64.509 877.332 55.612 877.602 46.724 877.831 C 45.353 877.866 44.848 877.42 44.782 875.981 C 44.659 873.345 44.173 870.759 44.83 868.051 C 45.364 865.853 45.5 863.468 45.576 861.154 C 45.813 853.936 46.04 846.713 46.085 839.491 C 46.181 824.308 46.119 809.131 45.655 793.948 C 45.215 779.513 45.586 765.041 45.14 750.607 C 44.631 734.085 44.744 717.557 44.241 702.008 C 44.75 686.593 44.667 672.141 44.74 657.69 C 44.759 654.048 44.802 653.903 47.682 653.772 C 49.259 653.7 49.804 652.95 49.859 651.167 C 49.905 649.703 50.069 648.241 50.234 646.787 C 50.569 643.836 50.898 643.501 53.296 643.659 C 55.186 643.783 57.047 643.888 58.962 643.583 C 64.904 642.638 70.933 643.069 76.882 642.091 C 77.175 642.042 77.481 642.117 77.781 642.117 C 85.078 642.116 92.376 642.133 99.673 642.1 C 103.573 642.083 107.494 642.286 111.365 641.852 C 120.036 640.88 128.709 640.55 137.413 640.33 C 151.421 639.975 165.401 640.442 179.39 641.016 C 184.583 641.229 189.803 641.433 194.978 641.022 C 204.176 640.292 213.368 640.571 222.562 640.639 C 231.559 640.707 240.555 641.185 249.551 641.132 C 262.344 641.058 275.136 640.607 287.918 641.742 C 290.798 641.998 293.689 642.203 296.582 641.46 C 298.567 640.952 298.961 641.51 298.929 644.229 C 298.827 653.04 298.724 661.85 298.566 670.659 C 298.213 690.245 297.756 709.829 297.478 729.417 C 297.312 741.17 297.723 752.923 297.892 764.676 C 298.189 785.244 298.647 805.804 299.172 826.363 C 299.463 837.741 299.441 849.131 300.203 860.49 C 300.484 864.663 300.04 865.171 296.72 865.478"></path>
      </g>
      <rect x="180.003" y="209.165" width="65.131" height="4.818" style="stroke: rgba(0, 0, 0, 0); fill: rgb(255, 255, 255);"></rect>
      <rect x="180.003" y="215.355" width="3.357" height="91.024" style="fill: rgb(255, 255, 255); stroke: rgba(0, 0, 0, 0);"></rect>
      <g transform="matrix(0.416667, 0, 0, -0.416667, 39.23896, 575.656311)" id="g10">
        <path id="path202" style="fill:#ffffff;fill-opacity:1;fill-rule:nonzero;stroke:none" d="M 577.751 655.498 C 577.074 666.161 576.373 677.186 576.12 688.065 C 575.873 698.712 575.476 710.234 575.094 721.375 C 574.525 737.895 573.938 754.978 573.774 770.578 C 573.727 775.016 573.865 779.521 573.997 783.877 C 574.2 790.554 574.411 797.459 573.963 804.264 C 573.492 811.396 573.957 818.625 574.406 825.616 C 574.794 831.664 575.196 837.917 574.989 844.069 C 575.043 845.298 575.104 846.489 575.166 847.68 C 575.303 850.34 575.446 853.09 575.499 855.794 C 575.582 859.945 575.519 864.206 575.463 867.964 C 575.383 873.375 574.623 874.231 569.66 874.502 C 568.353 874.574 567.047 874.667 565.741 874.76 C 561.965 875.029 558.061 875.307 554.188 875.031 C 547.672 874.567 542.415 874.641 537.644 875.267 L 535.795 875.511 C 531.65 876.06 527.362 876.626 523.135 876.942 C 511.331 877.824 499.507 876.072 488.07 874.379 C 485.982 874.07 483.895 873.761 481.807 873.467 C 478.413 872.989 475.023 872.471 471.633 871.954 C 464.127 870.807 456.365 869.622 448.685 868.908 C 426.447 866.841 405.778 866.543 385.499 867.998 C 383.099 868.169 380.717 868.612 378.217 869.35 L 377.725 869.496 C 374.575 870.428 371.319 871.392 368.04 871.308 C 361.636 871.142 355.181 871.646 348.939 872.135 C 347.069 872.282 345.198 872.428 343.327 872.557 C 340.679 872.74 339.011 872.697 338.327 871.931 C 337.644 871.168 337.75 869.463 338.162 866.779 C 338.244 866.24 338.359 865.617 338.581 865.08 C 340.732 859.878 341.588 854.575 341.126 849.316 C 341.076 848.747 341.099 847.968 341.492 847.498 C 341.712 847.236 342.027 847.094 342.455 847.066 C 343.005 847.03 343.557 846.964 344.108 846.9 C 345.945 846.683 347.681 846.478 349.424 847.288 C 353.108 848.999 354.039 848.791 356.545 845.695 C 357.404 844.634 358.19 843.496 358.95 842.394 C 359.24 841.975 359.529 841.557 359.823 841.141 C 360.703 839.895 361.294 837.987 359.106 835.976 C 357.319 834.334 355.394 834.193 353.537 835.57 C 352.865 836.068 352.281 836.818 351.973 837.577 C 351.201 839.479 349.893 840.242 347.721 840.048 C 346.972 839.981 346.219 840.043 345.491 840.104 C 345.002 840.144 344.513 840.185 344.026 840.185 L 344.022 840.185 C 342.02 840.185 341.212 839.407 341.043 837.313 C 340.845 834.865 340.901 832.358 340.955 829.933 C 341.031 826.514 341.108 822.978 340.488 819.496 C 340.31 818.502 340.661 817.636 341.451 817.12 C 342.776 816.252 349.224 816.62 350.651 817.644 C 352.246 818.789 353.514 819.226 354.642 819.019 C 355.71 818.824 356.657 818.066 357.624 816.635 C 359.032 814.55 359.642 812.205 359.439 809.665 C 359.312 808.085 358.847 807.024 358.017 806.418 C 357.188 805.814 356.058 805.711 354.566 806.105 C 353.126 806.484 352.173 807.419 351.736 808.886 C 351.311 810.307 350.394 810.876 348.675 810.791 C 347.952 810.755 347.225 810.781 346.521 810.805 C 345.872 810.83 345.2 810.852 344.552 810.826 C 342.74 810.751 341.912 810.551 341.497 810.088 C 341.07 809.61 340.944 808.704 341.034 806.744 C 341.101 805.307 341.27 803.845 341.433 802.43 C 341.834 798.958 342.249 795.367 341.226 791.714 C 340.985 790.852 341.097 790.05 341.542 789.459 C 341.999 788.853 342.772 788.534 343.714 788.553 C 344.671 788.574 345.657 788.427 346.61 788.286 C 349.052 787.919 351.359 787.575 353.262 789.924 C 353.641 790.39 354.445 790.424 354.889 790.404 C 356.855 790.311 359.169 788.12 359.744 785.804 C 360.337 783.416 359.044 780.576 356.8 779.338 C 354.762 778.215 352.775 778.684 351.347 780.624 C 349.711 782.848 347.825 782.28 345.827 781.678 C 345.164 781.477 344.479 781.271 343.812 781.177 C 341.834 780.897 341.533 779.126 341.324 776.656 L 341.299 776.363 C 341.167 774.855 341.111 773.308 341.057 771.812 C 340.993 770.08 340.927 768.289 340.746 766.531 L 340.725 766.335 C 340.383 763.028 340.194 761.207 340.832 760.512 C 341.473 759.815 343.282 759.9 346.563 760.054 L 346.959 760.072 C 349.098 760.164 350.946 760.242 351.44 762.875 C 351.629 763.875 352.518 764.408 353.759 764.268 C 357.278 763.869 359.648 762.329 360.804 759.691 C 362.084 756.767 361.74 753.6 359.835 750.772 C 358.727 749.129 356.984 748.435 354.919 748.82 C 353.095 749.16 352.062 750.278 351.933 752.055 C 351.863 753.018 351.619 753.643 351.187 753.964 C 350.698 754.329 349.902 754.355 348.685 754.049 C 347.804 753.829 346.899 753.698 346.022 753.572 C 345.26 753.461 344.47 753.348 343.719 753.176 C 340.328 752.402 340.051 752.061 340.006 748.628 C 339.95 744.344 339.984 739.986 340.017 735.77 L 340.039 732.703 C 340.056 730.13 340.186 728.702 340.849 728.033 C 341.503 727.373 342.863 727.261 345.307 727.282 C 346.178 727.289 347.111 727.304 348.021 727.372 C 349.103 727.453 349.835 727.991 350.469 729.172 C 350.596 729.408 350.654 729.754 350.715 730.121 C 350.858 730.987 351.072 732.293 352.702 732.221 C 354.275 732.149 355.208 730.89 356.032 729.78 L 356.215 729.534 C 358.152 726.95 358.027 721.876 355.963 719.292 C 355.053 718.152 353.899 717.592 352.794 717.75 C 351.697 717.909 350.779 718.744 350.211 720.1 C 349.415 721.998 348.732 722.33 347.033 721.644 C 345.871 721.174 344.566 720.993 343.329 720.867 C 341.156 720.643 340.542 719.424 340.172 717.252 C 339.623 714.032 340.035 710.784 340.434 707.644 C 340.768 705.013 341.115 702.293 340.907 699.568 C 340.863 698.979 341.174 698.478 341.782 698.157 C 343.547 697.228 350.252 697.64 351.51 699.045 C 352.868 700.56 354.156 700.197 355.257 699.738 C 358.561 698.359 359.623 694.945 358.028 690.828 C 357.34 689.052 356.292 687.906 355.078 687.599 C 354.374 687.422 353.266 687.444 351.991 688.565 C 349.067 691.133 346.219 690.628 343.066 689.765 C 339.732 688.854 339.287 688.231 339.413 684.642 C 339.456 683.406 339.531 682.169 339.605 680.933 C 339.698 679.39 339.795 677.794 339.825 676.219 C 339.835 675.705 339.842 675.222 339.847 674.77 C 339.881 672.077 339.902 670.451 340.679 669.685 C 341.56 668.818 343.616 668.722 347.897 668.833 C 349.861 668.885 351.074 669.031 351.26 671.281 C 351.343 672.298 351.789 673.074 352.482 673.409 C 353.183 673.747 354.054 673.589 354.936 672.964 C 356.888 671.58 357.967 669.118 357.822 666.376 C 357.677 663.657 356.361 661.35 354.3 660.205 C 352.674 659.301 351.162 659.587 350.044 661.011 L 349.948 661.132 C 349.229 662.053 348.66 662.779 347.513 662.673 C 346.489 662.579 345.462 662.504 344.435 662.43 C 343.33 662.35 342.226 662.271 341.124 662.165 C 339.706 662.028 338.178 661.5 338.176 660.661 C 338.171 659.337 338.188 658.455 338.213 657.752 C 338.148 655.625 338.151 653.868 338.376 652.093 C 338.654 649.895 339.234 648.81 341.613 648.957 C 342.306 649 342.967 649.022 343.599 649.022 C 345.737 649.022 347.53 648.771 349.041 648.261 C 357.424 645.438 365.937 646.162 372.419 647.109 C 386.337 649.142 400.348 650.32 413.415 651.29 C 424.35 652.101 435.468 651.533 446.22 650.983 C 452.547 650.66 459.089 650.325 465.535 650.274 C 479.876 650.16 498.766 649.881 517.719 648.735 L 519.802 648.607 C 528.379 648.08 537.248 647.534 545.988 648.446 C 548.3 648.687 550.65 648.988 552.923 649.279 C 560.043 650.19 567.405 651.131 574.781 650.407 C 575.121 650.373 575.505 650.395 575.99 650.473 L 576.491 650.555 L 576.533 649.926 C 577.038 650.044 577.558 650.126 578.088 650.169 L 577.751 655.498"></path>
        <path id="path204" style="fill:#222221;fill-opacity:1;fill-rule:nonzero;stroke:none" d="M 575.413 652.054 C 574.427 651.943 573.406 651.828 572.418 652.006 C 566.868 653.01 561.274 652.191 555.864 651.4 L 553.887 651.114 C 543.248 649.609 532.164 649.347 519.999 650.315 C 506.842 651.362 493.424 651.61 480.448 651.85 C 477.17 651.91 473.893 651.971 470.617 652.043 C 464.484 652.18 458.263 652.488 452.248 652.787 C 439.548 653.416 426.415 654.066 413.535 653.117 C 399.716 652.099 386.188 651.012 372.61 648.924 C 368.629 648.312 365.057 648.004 361.762 648.004 C 357.356 648.003 353.445 648.555 349.705 649.667 C 348.04 650.164 346.203 650.266 344.427 650.365 C 343.793 650.4 343.159 650.435 342.532 650.488 C 341.893 650.541 341.37 650.681 340.93 650.917 L 340.688 651.048 L 340.683 651.33 C 340.664 652.392 340.672 653.211 340.68 654.181 C 340.689 655.148 340.698 656.266 340.685 657.931 C 340.672 659.59 340.875 661.364 343.463 661.423 C 343.747 661.429 344.028 661.443 344.305 661.457 C 346.083 661.541 347.919 661.629 349.651 659.77 C 351.349 657.949 353.272 657.878 355.701 659.547 C 357.952 661.094 359.377 663.791 359.511 666.758 C 359.645 669.697 358.488 672.483 356.417 674.21 C 355.185 675.239 354.016 675.656 352.944 675.446 C 351.837 675.232 350.857 674.359 350.031 672.853 C 348.715 670.455 345.293 669.296 342.99 670.47 C 341.699 671.128 341.635 672.392 341.592 673.229 C 341.537 674.321 341.474 675.414 341.411 676.505 C 341.279 678.808 341.142 681.189 341.078 683.536 C 341.071 683.828 341.03 684.14 340.988 684.458 C 340.827 685.701 340.606 687.402 342.499 688.092 L 343.006 688.28 C 344.826 688.961 346.888 689.732 349.016 688.569 C 349.53 688.289 350.023 687.968 350.501 687.66 C 351.032 687.316 351.581 686.961 352.139 686.673 C 353.606 685.916 354.943 685.748 356.225 686.16 C 359.458 687.198 361.597 692.885 360.388 697.225 C 359.569 700.162 354.709 702.915 351.72 702.135 C 350.952 701.934 350.497 701.619 350.199 701.08 C 349.073 699.038 347.32 699.281 345.911 699.477 C 345.401 699.548 344.921 699.616 344.469 699.594 C 343.998 699.572 343.537 699.758 343.204 700.103 C 342.899 700.419 342.745 700.826 342.769 701.248 C 342.898 703.439 342.536 705.651 342.185 707.79 C 341.792 710.194 341.384 712.679 341.648 715.205 C 341.673 715.439 341.684 715.684 341.695 715.934 C 341.753 717.198 341.832 718.928 343.894 719.428 C 345.852 719.902 347.756 720.128 349.526 717.719 C 350.445 716.467 351.664 715.769 353.052 715.701 C 354.624 715.623 356.243 716.383 357.501 717.789 C 359.581 720.113 360.438 723.319 359.853 726.583 C 359.274 729.817 357.387 732.473 354.677 733.869 C 353.141 734.661 351.956 734.867 351.055 734.5 C 350.255 734.175 349.641 733.383 349.178 732.08 C 348.247 729.458 346.357 729.525 344.838 729.578 C 344.663 729.583 344.487 729.589 344.313 729.592 C 342.111 729.625 342.07 731.509 342.042 732.756 L 341.909 735.998 C 341.762 739.378 341.611 742.875 341.547 746.317 L 341.534 746.798 C 341.48 748.458 341.414 750.524 344.028 751.309 C 346.898 752.171 348.922 752.193 350.782 749.754 C 352.312 747.749 354.72 746.672 357.068 746.95 C 359.169 747.197 360.887 748.471 361.783 750.448 C 363.502 754.24 363.744 757.832 362.468 760.561 C 361.276 763.108 358.852 764.861 355.264 765.771 C 352.657 766.431 350.563 766.698 349.299 763.684 C 348.26 761.211 345.865 761.805 344.28 762.198 L 343.906 762.29 C 342.271 762.677 342.519 764.21 342.682 765.224 C 342.728 765.502 342.773 765.774 342.781 766.016 C 342.904 769.345 343.128 772.698 343.346 775.846 C 343.459 777.482 344.116 778.756 345.194 779.432 C 346.316 780.135 347.807 780.144 349.393 779.457 C 349.776 779.29 350.078 779.02 350.369 778.758 C 350.546 778.6 350.722 778.44 350.916 778.316 C 354.303 776.144 357.119 776.451 359.778 779.284 C 362.347 782.021 362.689 785.393 360.717 788.535 C 359.655 790.225 358.134 791.393 355.929 792.209 C 353.971 792.935 352.655 792.637 351.074 791.11 C 349.673 789.756 347.959 790.245 346.447 790.675 C 345.81 790.857 345.208 791.028 344.635 791.078 C 344.293 791.107 343.999 791.279 343.786 791.573 C 343.429 792.065 343.407 792.74 343.496 793.167 C 344.115 796.14 343.719 799.007 343.298 802.042 C 343.178 802.908 343.058 803.774 342.964 804.642 C 342.946 804.799 342.921 804.967 342.895 805.143 C 342.723 806.323 342.435 808.298 344.574 808.653 L 345.083 808.744 C 346.641 809.029 348.775 809.419 349.977 807.182 C 351.911 803.584 355.076 803.558 358.209 804.069 C 359.719 804.314 360.7 805.169 361.126 806.609 C 362.465 811.137 361.132 817.797 356.641 820.663 C 354.092 822.29 351.963 822.321 349.939 820.763 C 349.003 820.042 348.171 819.402 346.889 819.301 C 345.318 819.179 344.214 819.24 343.547 819.919 C 342.99 820.485 342.81 821.379 342.923 823.005 C 343.061 825.017 342.902 827.057 342.749 829.031 C 342.629 830.566 342.505 832.154 342.52 833.73 C 342.522 833.937 342.513 834.161 342.504 834.393 C 342.454 835.737 342.378 837.767 344.527 838.05 C 344.723 838.077 344.924 838.107 345.128 838.138 C 346.847 838.401 348.986 838.727 350.365 836.472 C 350.724 835.884 351.281 835.026 351.968 834.34 C 354.365 831.951 357.687 831.955 360.431 834.349 C 363.372 836.917 363.719 839.153 361.666 842.326 C 360.459 844.193 359.176 845.94 357.852 847.518 C 356.847 848.717 353.247 852.419 349.122 849.721 C 348.006 848.991 346.812 848.925 345.79 848.959 C 344.869 848.989 344.258 849.205 343.867 849.638 C 343.564 849.974 343.424 850.417 343.449 850.957 C 343.646 855.15 342.785 859.278 341.953 863.271 C 341.573 865.092 341.181 866.976 340.891 868.85 C 340.834 869.217 340.915 869.565 341.018 870.005 C 341.069 870.226 341.129 870.481 341.182 870.787 L 341.257 871.222 L 344.584 870.864 C 351.791 870.08 358.599 869.338 365.558 869.641 C 369.909 869.833 374.072 868.773 378.308 867.576 C 380.853 866.857 383.474 866.436 386.32 866.291 C 398.629 865.662 411.548 865.491 424.718 865.782 C 443.969 866.207 462.863 868.828 483.796 871.952 L 486.852 872.412 C 498.794 874.214 511.143 876.08 523.515 874.992 C 527.156 874.672 530.84 874.167 534.401 873.68 L 535.792 873.491 C 541.751 872.681 547.837 872.895 553.722 873.101 C 554.73 873.137 555.737 873.172 556.745 873.203 C 561.162 873.336 565.522 873.112 569.577 872.849 C 573.093 872.622 573.632 872.04 573.698 868.394 C 573.799 862.784 573.75 857.042 573.707 851.977 C 573.673 848.006 573.55 844.06 573.434 840.722 C 573.403 839.806 573.398 838.889 573.393 837.973 C 573.38 835.186 573.365 832.305 572.568 829.467 C 572.045 827.601 572.095 825.477 572.178 824.042 C 573.022 809.495 572.843 794.711 572.67 780.415 C 572.613 775.741 572.556 771.067 572.534 766.393 C 572.444 747.906 573.15 727.614 573.832 707.991 C 574.135 699.265 574.422 691.025 574.641 682.959 C 574.88 674.202 575.487 665.32 576.074 656.731 L 576.385 652.161 L 575.413 652.054 Z M 577.751 655.498 C 577.073 666.161 576.373 677.186 576.12 688.065 C 575.873 698.712 575.476 710.234 575.093 721.375 C 574.525 737.895 573.938 754.978 573.774 770.578 C 573.727 775.016 573.865 779.521 573.997 783.877 C 574.2 790.554 574.411 797.459 573.962 804.264 C 573.492 811.396 573.956 818.625 574.406 825.616 C 574.794 831.664 575.196 837.917 574.989 844.069 C 575.043 845.298 575.104 846.489 575.166 847.68 C 575.303 850.34 575.446 853.09 575.499 855.794 C 575.582 859.945 575.518 864.206 575.463 867.964 C 575.383 873.375 574.623 874.231 569.66 874.502 C 568.353 874.574 567.047 874.667 565.741 874.76 C 561.965 875.029 558.061 875.307 554.188 875.031 C 547.672 874.567 542.415 874.641 537.644 875.267 L 535.795 875.511 C 531.649 876.059 527.362 876.626 523.135 876.942 C 511.331 877.824 499.507 876.072 488.07 874.379 C 485.982 874.07 483.895 873.761 481.807 873.467 C 478.413 872.989 475.023 872.471 471.633 871.954 C 464.127 870.807 456.365 869.622 448.685 868.908 C 426.447 866.841 405.778 866.543 385.499 867.998 C 383.099 868.169 380.717 868.612 378.217 869.35 L 377.725 869.496 C 374.575 870.428 371.319 871.392 368.039 871.308 C 361.636 871.142 355.181 871.646 348.939 872.135 C 347.069 872.282 345.198 872.428 343.327 872.557 C 340.679 872.74 339.011 872.697 338.327 871.931 C 337.644 871.168 337.75 869.463 338.162 866.779 C 338.244 866.24 338.359 865.617 338.581 865.08 C 340.732 859.878 341.588 854.575 341.126 849.316 C 341.076 848.747 341.099 847.968 341.492 847.498 C 341.712 847.236 342.026 847.094 342.455 847.066 C 343.005 847.03 343.556 846.964 344.108 846.9 C 345.945 846.683 347.68 846.478 349.424 847.288 C 353.108 848.999 354.039 848.791 356.545 845.695 C 357.403 844.634 358.19 843.496 358.95 842.394 C 359.24 841.975 359.529 841.557 359.822 841.141 C 360.703 839.895 361.294 837.987 359.106 835.976 C 357.319 834.334 355.394 834.193 353.537 835.57 C 352.865 836.068 352.281 836.818 351.973 837.577 C 351.2 839.479 349.893 840.242 347.721 840.048 C 346.972 839.981 346.219 840.043 345.491 840.104 C 345.002 840.144 344.513 840.185 344.026 840.185 L 344.022 840.185 C 342.019 840.185 341.212 839.407 341.043 837.313 C 340.845 834.865 340.901 832.358 340.955 829.933 C 341.031 826.514 341.108 822.978 340.488 819.496 C 340.31 818.502 340.661 817.636 341.451 817.12 C 342.776 816.252 349.224 816.62 350.651 817.644 C 352.246 818.789 353.514 819.226 354.642 819.019 C 355.709 818.824 356.657 818.066 357.623 816.635 C 359.032 814.55 359.642 812.205 359.439 809.665 C 359.312 808.085 358.847 807.024 358.017 806.418 C 357.188 805.814 356.058 805.711 354.566 806.105 C 353.126 806.484 352.173 807.419 351.736 808.886 C 351.311 810.307 350.394 810.876 348.675 810.791 C 347.952 810.755 347.225 810.781 346.521 810.805 C 345.872 810.83 345.2 810.852 344.551 810.826 C 342.74 810.751 341.912 810.551 341.497 810.088 C 341.069 809.61 340.944 808.704 341.034 806.744 C 341.1 805.307 341.27 803.845 341.433 802.43 C 341.834 798.958 342.249 795.367 341.226 791.714 C 340.985 790.852 341.097 790.05 341.542 789.459 C 341.999 788.853 342.772 788.534 343.714 788.553 C 344.671 788.574 345.657 788.427 346.61 788.286 C 349.052 787.919 351.359 787.575 353.262 789.924 C 353.641 790.39 354.444 790.424 354.889 790.404 C 356.855 790.311 359.169 788.12 359.744 785.804 C 360.337 783.416 359.044 780.576 356.8 779.338 C 354.762 778.215 352.775 778.684 351.347 780.624 C 349.711 782.848 347.825 782.28 345.827 781.678 C 345.164 781.477 344.479 781.271 343.812 781.177 C 341.834 780.897 341.533 779.126 341.324 776.656 L 341.299 776.363 C 341.167 774.855 341.111 773.308 341.056 771.812 C 340.993 770.08 340.927 768.289 340.746 766.531 L 340.725 766.335 C 340.382 763.028 340.194 761.207 340.832 760.512 C 341.473 759.815 343.282 759.9 346.563 760.054 L 346.959 760.072 C 349.098 760.164 350.946 760.242 351.44 762.875 C 351.629 763.875 352.517 764.408 353.759 764.268 C 357.278 763.869 359.648 762.329 360.803 759.691 C 362.084 756.767 361.74 753.6 359.834 750.772 C 358.727 749.129 356.984 748.435 354.919 748.82 C 353.095 749.16 352.062 750.278 351.933 752.055 C 351.863 753.018 351.619 753.643 351.187 753.964 C 350.697 754.329 349.902 754.355 348.685 754.049 C 347.804 753.829 346.899 753.698 346.022 753.572 C 345.26 753.461 344.47 753.348 343.719 753.176 C 340.328 752.402 340.051 752.061 340.006 748.628 C 339.95 744.344 339.984 739.986 340.017 735.77 L 340.039 732.703 C 340.056 730.13 340.186 728.702 340.848 728.033 C 341.503 727.373 342.863 727.261 345.306 727.282 C 346.178 727.289 347.111 727.304 348.021 727.372 C 349.103 727.453 349.835 727.991 350.469 729.172 C 350.596 729.408 350.653 729.754 350.715 730.121 C 350.858 730.987 351.072 732.293 352.702 732.221 C 354.275 732.149 355.208 730.89 356.032 729.78 L 356.215 729.534 C 358.152 726.95 358.027 721.876 355.963 719.291 C 355.053 718.152 353.899 717.592 352.794 717.75 C 351.697 717.909 350.779 718.744 350.211 720.1 C 349.415 721.998 348.732 722.33 347.033 721.644 C 345.871 721.174 344.566 720.993 343.329 720.867 C 341.156 720.643 340.542 719.424 340.172 717.252 C 339.623 714.032 340.035 710.784 340.434 707.644 C 340.768 705.013 341.115 702.293 340.907 699.568 C 340.863 698.979 341.174 698.478 341.782 698.157 C 343.547 697.228 350.252 697.64 351.51 699.045 C 352.868 700.56 354.156 700.197 355.256 699.738 C 358.561 698.359 359.623 694.945 358.027 690.828 C 357.34 689.052 356.292 687.906 355.078 687.599 C 354.374 687.422 353.266 687.444 351.991 688.564 C 349.066 691.133 346.219 690.628 343.066 689.765 C 339.732 688.854 339.287 688.231 339.412 684.642 C 339.456 683.406 339.531 682.169 339.605 680.933 C 339.698 679.39 339.795 677.794 339.825 676.219 C 339.835 675.705 339.841 675.222 339.847 674.77 C 339.881 672.077 339.902 670.451 340.679 669.685 C 341.56 668.818 343.616 668.722 347.897 668.833 C 349.86 668.885 351.074 669.031 351.26 671.281 C 351.343 672.298 351.789 673.074 352.482 673.409 C 353.183 673.747 354.054 673.589 354.936 672.964 C 356.888 671.58 357.967 669.118 357.822 666.376 C 357.677 663.657 356.361 661.35 354.299 660.205 C 352.674 659.301 351.162 659.587 350.044 661.011 L 349.948 661.132 C 349.229 662.053 348.66 662.779 347.513 662.673 C 346.489 662.579 345.462 662.504 344.435 662.43 C 343.33 662.35 342.226 662.271 341.124 662.165 C 339.706 662.028 338.178 661.5 338.176 660.661 C 338.171 659.337 338.188 658.455 338.213 657.752 C 338.148 655.625 338.151 653.868 338.376 652.093 C 338.654 649.895 339.234 648.81 341.613 648.957 C 342.306 649 342.967 649.022 343.599 649.022 C 345.737 649.022 347.529 648.771 349.041 648.261 C 357.424 645.438 365.937 646.162 372.419 647.109 C 386.337 649.142 400.348 650.32 413.415 651.29 C 424.35 652.101 435.468 651.533 446.22 650.983 C 452.547 650.66 459.089 650.325 465.535 650.274 C 479.875 650.16 498.766 649.881 517.719 648.735 L 519.802 648.607 C 528.379 648.08 537.247 647.534 545.988 648.446 C 548.299 648.687 550.65 648.988 552.923 649.279 C 560.043 650.19 567.405 651.131 574.781 650.407 C 575.121 650.373 575.505 650.395 575.99 650.473 L 576.491 650.555 L 576.533 649.926 C 577.038 650.044 577.558 650.126 578.088 650.169 L 577.751 655.498"></path>
      </g>
      <g transform="matrix(0.401075, 0, 0, -0.416667, 233.36792, 579.7677)" style=""></g>
      <text style="fill: rgb(51, 51, 51); font-family: &quot;MV Boli&quot;; font-size: 8px; font-weight: 700; white-space: pre;" transform="matrix(1, 0, 0, 1, 0, 5)"><tspan x="194.135" y="224.309"> I want a column:<tspan x="194.13499450683594" dy="1.6em">​</tspan></tspan><tspan style="font-size: 5px;">- 172 px width and 80px height<tspan x="194.13499450683594" dy="1.6em">​</tspan>- light cyan background color<tspan x="194.13499450683594" dy="1.6em">​</tspan>- bold and italic text inside<tspan x="194.13499450683594" dy="1.6em">​</tspan>- solid border and black coloured<tspan x="194.13499450683594" dy="1.6em">​</tspan>- "info" blue icon near text<tspan x="194.13499450683594" dy="1.6em">​</tspan>- large font size </tspan></text>
    </g>
    <g transform="matrix(1, 0, 0, 1, -3, 0)">
      <g transform="matrix(-0.079187, 0.012043, -0.020047, -0.131818, 745.82074, 523.436462)">
        <path id="path-2" style="fill:#9d71bf;fill-opacity:1;fill-rule:nonzero;stroke:none" d="M 4593.15 2537.11 C 4594.91 2525.42 4598.35 2521.16 4585.53 2517.06 C 4567.38 2511.28 4547.24 2508.55 4528.52 2504.59 C 4491.5 2496.82 4454.34 2489.62 4417.05 2482.93 C 4340.63 2469.16 4263.68 2457.56 4186.44 2448.26 C 4102.35 2438.13 4017.9 2430.75 3933.27 2425.71 C 3908.41 2424.25 3883.53 2423.01 3858.63 2421.97 C 3781.6 2428.38 3703.02 2422.43 3626.13 2416.04 C 3595.47 2413.5 3561.26 2414.46 3559.68 2379.58 C 3558.55 2354.36 3559.13 2328.96 3559.55 2303.61 C 3440.92 2369.49 3323.5 2437.34 3207.78 2507.39 C 3320.46 2600.32 3433.13 2693.22 3545.79 2786.14 C 3550.31 2759.46 3554.81 2732.81 3559.49 2706.16 C 3561.62 2694.01 3563.96 2681.88 3574.66 2673.22 C 3585.29 2664.62 3600.4 2662.89 3614.1 2663.86 C 3651.66 2666.47 3689.25 2672.61 3726.66 2676.78 C 3765.28 2681.06 3803.94 2685.13 3842.65 2689.02 C 3998.49 2704.67 4154.74 2717.07 4311.21 2726.19 C 4350.05 2728.44 4388.92 2730.5 4427.77 2732.21 C 4446.65 2733.03 4465.52 2733.82 4484.42 2734.55 C 4501.13 2735.19 4519.09 2737.34 4535.78 2735.3 C 4572.67 2730.75 4570.3 2689.66 4574.16 2663.89 C 4579.17 2630.46 4584.19 2597.04 4589.2 2563.64 C 4590.51 2554.8 4591.85 2545.96 4593.15 2537.11" clip-path="url(#clipPath200)"></path>
        <path id="path-3" style="fill:#623da1;fill-opacity:1;fill-rule:nonzero;stroke:none" d="M 3627.52 2768.89 C 3588.92 2749.52 3553.67 2724.98 3518.32 2700.32 C 3483.01 2675.69 3448.01 2650.6 3413.34 2625.06 C 3344.85 2574.62 3274.11 2523.5 3213.31 2463.89 C 3202.11 2452.9 3216.84 2432.61 3230.43 2441.7 C 3301.67 2489.36 3368.24 2544.45 3437.57 2594.91 C 3506.57 2645.14 3580.79 2689.82 3646.22 2744.65 C 3660.3 2756.46 3642.36 2776.35 3627.52 2768.89" clip-path="url(#clipPath200)"></path>
        <path id="path206" style="fill:#623da1;fill-opacity:1;fill-rule:nonzero;stroke:none" d="M 3800.87 2776.66 C 3701.64 2717.56 3607 2649.97 3513.34 2582.5 C 3419.99 2515.27 3330.82 2443.46 3241.49 2371.05 C 3233.83 2364.83 3244.07 2351.38 3252.14 2357.26 C 3344.51 2424.56 3439.61 2488.54 3533.73 2553.38 C 3628.15 2618.43 3725.1 2679.79 3819.32 2745.09 C 3838.4 2758.31 3821.39 2788.88 3800.87 2776.66" clip-path="url(#clipPath200)"></path>
        <path id="path208" style="fill:#623da1;fill-opacity:1;fill-rule:nonzero;stroke:none" d="M 4009.2 2804.31 C 3909.2 2748.79 3814.5 2683.29 3719.9 2619.12 C 3624.19 2554.19 3530.37 2486.59 3437.95 2417.07 C 3387.29 2378.96 3335.17 2339.97 3290.01 2295.36 C 3287.01 2292.4 3290.83 2287.56 3294.47 2289.58 C 3344.01 2317.2 3391.04 2350.8 3437.72 2383.01 C 3484.79 2415.48 3532.07 2447.62 3579.26 2479.92 C 3672.9 2544.03 3767.44 2606.93 3862.84 2668.41 C 3917.56 2703.68 3972.71 2738.14 4026.1 2775.41 C 4043.55 2787.58 4028.32 2814.92 4009.2 2804.31" clip-path="url(#clipPath200)"></path>
        <path id="path210" style="fill:#623da1;fill-opacity:1;fill-rule:nonzero;stroke:none" d="M 4175.8 2805.22 C 4070.48 2745.11 3969.32 2677.11 3868.19 2610.23 C 3766.91 2543.25 3666.14 2475.2 3567.75 2404 C 3512.13 2363.76 3456.85 2323.05 3401.86 2281.92 C 3390.49 2273.42 3401.13 2254.06 3413.24 2262.45 C 3612.66 2400.56 3814.61 2535.48 4019.76 2664.94 C 4077.73 2701.53 4136.37 2737.04 4193.54 2774.88 C 4212.27 2787.28 4195.63 2816.53 4175.8 2805.22" clip-path="url(#clipPath200)"></path>
        <path id="path212" style="fill:#623da1;fill-opacity:1;fill-rule:nonzero;stroke:none" d="M 4368.25 2833.9 C 4312.49 2808.7 4261.01 2773.4 4209.46 2740.63 C 4158.45 2708.2 4108.02 2674.83 4057.89 2641.04 C 3956.75 2572.84 3857.1 2502.46 3760.17 2428.38 C 3705.98 2386.96 3654.5 2342.58 3601.46 2299.78 C 3595.55 2295 3603.44 2284.63 3609.67 2289.15 C 3659.1 2325.08 3710.78 2358.11 3760.87 2393.13 C 3810.32 2427.72 3859.92 2462.14 3909.79 2496.14 C 4010.45 2564.8 4111.99 2631.94 4214.68 2697.53 C 4272.22 2734.28 4332.75 2768.03 4386.51 2810.22 C 4401 2821.59 4382.53 2840.36 4368.25 2833.9" clip-path="url(#clipPath200)"></path>
        <path id="path214" style="fill:#623da1;fill-opacity:1;fill-rule:nonzero;stroke:none" d="M 4506.77 2833.97 C 4449.92 2807.09 4397.56 2772.4 4344.66 2738.51 C 4292.61 2705.18 4241.04 2671.12 4189.97 2636.33 C 4087.58 2566.59 3986.9 2494.3 3889.63 2417.55 C 3862.85 2396.44 3835.97 2375.37 3809.74 2353.59 C 3782.06 2330.62 3756.2 2305.55 3728.05 2283.14 C 3722.43 2278.68 3730.37 2270.83 3735.94 2275.25 C 3760.72 2294.97 3787.29 2312.35 3813.35 2330.35 C 3839.06 2348.12 3864.01 2367.04 3889.43 2385.23 C 3939.58 2421.12 3989.84 2456.89 4040.52 2492.05 C 4141.25 2561.92 4242.73 2630.55 4346.17 2696.39 C 4404.77 2733.68 4465.34 2768.08 4521.03 2809.58 C 4535.52 2820.38 4523.45 2841.87 4506.77 2833.97" clip-path="url(#clipPath200)"></path>
        <path id="path216" style="fill:#623da1;fill-opacity:1;fill-rule:nonzero;stroke:none" d="M 4576.3 2764.42 C 4526.22 2745.49 4480.48 2712.04 4435.66 2683.21 C 4391.21 2654.61 4347.56 2624.89 4304.51 2594.23 C 4217.16 2532.03 4134.79 2464.68 4052.1 2396.53 C 4039.79 2386.4 4057.35 2369.16 4069.56 2379.07 C 4151.8 2445.82 4239.64 2507.04 4327.29 2566.42 C 4370.99 2596.02 4415.21 2624.89 4459.8 2653.11 C 4503.54 2680.79 4551.86 2704.87 4591.54 2738.23 C 4603.29 2748.1 4590.75 2769.88 4576.3 2764.42" clip-path="url(#clipPath200)"></path>
        <path id="path218" style="fill:#623da1;fill-opacity:1;fill-rule:nonzero;stroke:none" d="M 4693.87 2711.6 C 4647.89 2690.74 4605.05 2663.51 4561.92 2637.36 C 4518.77 2611.19 4476.2 2584.06 4433.89 2556.54 C 4349.13 2501.42 4266.51 2443.53 4184.67 2384.18 C 4171.28 2374.47 4183.84 2352.01 4197.85 2361.63 C 4280.95 2418.64 4365.91 2473.22 4451.47 2526.46 C 4494.32 2553.1 4537.55 2579.11 4580.83 2605.03 C 4624.1 2630.95 4668.72 2654.94 4710.04 2683.92 C 4727.08 2695.87 4712.63 2720.11 4693.87 2711.6" clip-path="url(#clipPath200)"></path>
      </g>
      <path id="path220" style="fill:#100f0d;fill-opacity:1;fill-rule:nonzero;stroke:none" d="M 441.199 230.967 C 442.226 231.513 441.95 232.081 441.809 233.641 C 441.705 234.821 441.598 236 441.493 237.177 C 441.092 241.631 440.689 246.088 440.288 250.544 C 439.979 253.98 440.17 259.46 437.215 260.066 C 435.877 260.338 434.439 260.051 433.1 259.965 C 431.586 259.868 430.075 259.763 428.563 259.654 C 425.452 259.426 422.338 259.152 419.227 258.851 C 406.694 257.635 394.178 255.982 381.696 253.895 C 378.596 253.376 375.499 252.834 372.406 252.264 C 369.409 251.707 366.398 250.889 363.39 250.54 C 362.293 250.412 361.082 250.642 360.231 251.788 C 359.374 252.943 359.186 254.56 359.016 256.181 C 358.641 259.734 358.281 263.287 357.918 266.844 C 348.895 254.455 339.87 242.069 330.845 229.678 C 340.113 220.338 349.518 211.291 359.021 202.508 C 358.987 205.887 358.941 209.274 359.031 212.636 C 359.157 217.287 361.898 217.159 364.354 217.498 C 370.512 218.349 376.806 219.143 382.976 218.288 C 384.971 218.427 386.964 218.592 388.955 218.787 C 395.734 219.459 402.498 220.443 409.233 221.793 C 415.419 223.034 421.583 224.581 427.704 226.416 C 430.691 227.309 433.668 228.268 436.633 229.304 C 438.132 229.833 439.745 230.197 441.199 230.967 Z M 444.912 231.628 C 444.933 229.845 444.492 228.358 443.421 227.51 C 442.111 226.47 440.339 226.271 438.901 225.796 C 437.37 225.293 435.836 224.808 434.301 224.334 C 431.229 223.394 428.147 222.524 425.058 221.728 C 418.776 220.115 412.46 218.799 406.122 217.786 C 399.895 216.79 393.648 216.084 387.392 215.708 C 384.233 215.516 381.063 214.655 377.888 214.394 C 374.435 214.115 370.977 213.966 367.528 213.564 C 366.203 213.409 364.882 213.235 363.561 213.045 C 363.363 213.017 362.112 213.074 361.976 212.803 C 361.759 212.374 361.934 210.826 361.937 210.29 C 361.944 206.386 361.954 202.475 361.961 198.569 C 361.963 196.936 360.714 195.813 359.772 196.68 C 348.954 206.599 338.317 216.916 327.814 227.564 C 327.087 228.301 326.804 229.95 327.524 230.939 C 337.652 244.831 347.78 258.729 357.908 272.623 C 358.617 273.595 360.121 273.376 360.292 271.679 C 360.588 268.754 360.888 265.828 361.179 262.899 C 361.313 261.57 361.448 260.237 361.579 258.909 C 361.68 257.887 361.615 256.192 361.978 255.289 C 362.549 253.871 365.189 255.062 366.043 255.22 C 367.898 255.574 369.753 255.914 371.61 256.242 C 378.859 257.534 386.122 258.676 393.392 259.67 C 406.338 261.443 419.314 262.701 432.3 263.629 C 434.756 263.803 437.817 264.617 440.049 262.6 C 442.215 260.637 442.583 256.679 442.908 253.255 C 443.348 248.547 443.79 243.835 444.235 239.127 C 444.466 236.679 444.884 234.103 444.912 231.628" transform="matrix(-0.988632, 0.150354, -0.150354, -0.988632, 802.931783, 408.871874)"></path>
    </g>
    <g transform="matrix(1, 0, 0, 1, 0.000275, 18.865049)">
      <rect x="450.018" y="100" width="222.332" height="237.07" style="stroke: rgb(0, 0, 0); fill: rgb(255, 255, 255); stroke-width: 2px;"></rect>
      <rect x="450.018" y="100" width="222.332" height="26.245" style="stroke: rgb(0, 0, 0); stroke-width: 2px; fill: rgb(132, 73, 128);"></rect>
      <text style="fill: rgb(51, 51, 51); font-family: &quot;Segoe UI&quot;, sans-serif; font-size: 41px; font-weight: 700; white-space: pre;" transform="matrix(1, 0, 0, 1, -266.018585, 66.642792)"><tspan x="734.605" y="171.052" style="font-size: 75px;">{</tspan><tspan style="font-size: 50px;">JSON</tspan><tspan style="font-size: 75px;">}</tspan><tspan x="734.605" dy="1em">​</tspan></text>
    </g>
    <g transform="matrix(1, 0, 0, 1, 359.317444, 0)">
      <g transform="matrix(-0.079187, 0.012043, -0.020047, -0.131818, 745.82074, 523.436462)">
        <path id="path-5" style="fill:#9d71bf;fill-opacity:1;fill-rule:nonzero;stroke:none" d="M 4593.15 2537.11 C 4594.91 2525.42 4598.35 2521.16 4585.53 2517.06 C 4567.38 2511.28 4547.24 2508.55 4528.52 2504.59 C 4491.5 2496.82 4454.34 2489.62 4417.05 2482.93 C 4340.63 2469.16 4263.68 2457.56 4186.44 2448.26 C 4102.35 2438.13 4017.9 2430.75 3933.27 2425.71 C 3908.41 2424.25 3883.53 2423.01 3858.63 2421.97 C 3781.6 2428.38 3703.02 2422.43 3626.13 2416.04 C 3595.47 2413.5 3561.26 2414.46 3559.68 2379.58 C 3558.55 2354.36 3559.13 2328.96 3559.55 2303.61 C 3440.92 2369.49 3323.5 2437.34 3207.78 2507.39 C 3320.46 2600.32 3433.13 2693.22 3545.79 2786.14 C 3550.31 2759.46 3554.81 2732.81 3559.49 2706.16 C 3561.62 2694.01 3563.96 2681.88 3574.66 2673.22 C 3585.29 2664.62 3600.4 2662.89 3614.1 2663.86 C 3651.66 2666.47 3689.25 2672.61 3726.66 2676.78 C 3765.28 2681.06 3803.94 2685.13 3842.65 2689.02 C 3998.49 2704.67 4154.74 2717.07 4311.21 2726.19 C 4350.05 2728.44 4388.92 2730.5 4427.77 2732.21 C 4446.65 2733.03 4465.52 2733.82 4484.42 2734.55 C 4501.13 2735.19 4519.09 2737.34 4535.78 2735.3 C 4572.67 2730.75 4570.3 2689.66 4574.16 2663.89 C 4579.17 2630.46 4584.19 2597.04 4589.2 2563.64 C 4590.51 2554.8 4591.85 2545.96 4593.15 2537.11" clip-path="url(#clip-1)"></path>
        <path id="path-6" style="fill:#623da1;fill-opacity:1;fill-rule:nonzero;stroke:none" d="M 3627.52 2768.89 C 3588.92 2749.52 3553.67 2724.98 3518.32 2700.32 C 3483.01 2675.69 3448.01 2650.6 3413.34 2625.06 C 3344.85 2574.62 3274.11 2523.5 3213.31 2463.89 C 3202.11 2452.9 3216.84 2432.61 3230.43 2441.7 C 3301.67 2489.36 3368.24 2544.45 3437.57 2594.91 C 3506.57 2645.14 3580.79 2689.82 3646.22 2744.65 C 3660.3 2756.46 3642.36 2776.35 3627.52 2768.89" clip-path="url(#clip-1)"></path>
        <path id="path-7" style="fill:#623da1;fill-opacity:1;fill-rule:nonzero;stroke:none" d="M 3800.87 2776.66 C 3701.64 2717.56 3607 2649.97 3513.34 2582.5 C 3419.99 2515.27 3330.82 2443.46 3241.49 2371.05 C 3233.83 2364.83 3244.07 2351.38 3252.14 2357.26 C 3344.51 2424.56 3439.61 2488.54 3533.73 2553.38 C 3628.15 2618.43 3725.1 2679.79 3819.32 2745.09 C 3838.4 2758.31 3821.39 2788.88 3800.87 2776.66" clip-path="url(#clip-1)"></path>
        <path id="path-8" style="fill:#623da1;fill-opacity:1;fill-rule:nonzero;stroke:none" d="M 4009.2 2804.31 C 3909.2 2748.79 3814.5 2683.29 3719.9 2619.12 C 3624.19 2554.19 3530.37 2486.59 3437.95 2417.07 C 3387.29 2378.96 3335.17 2339.97 3290.01 2295.36 C 3287.01 2292.4 3290.83 2287.56 3294.47 2289.58 C 3344.01 2317.2 3391.04 2350.8 3437.72 2383.01 C 3484.79 2415.48 3532.07 2447.62 3579.26 2479.92 C 3672.9 2544.03 3767.44 2606.93 3862.84 2668.41 C 3917.56 2703.68 3972.71 2738.14 4026.1 2775.41 C 4043.55 2787.58 4028.32 2814.92 4009.2 2804.31" clip-path="url(#clip-1)"></path>
        <path id="path-9" style="fill:#623da1;fill-opacity:1;fill-rule:nonzero;stroke:none" d="M 4175.8 2805.22 C 4070.48 2745.11 3969.32 2677.11 3868.19 2610.23 C 3766.91 2543.25 3666.14 2475.2 3567.75 2404 C 3512.13 2363.76 3456.85 2323.05 3401.86 2281.92 C 3390.49 2273.42 3401.13 2254.06 3413.24 2262.45 C 3612.66 2400.56 3814.61 2535.48 4019.76 2664.94 C 4077.73 2701.53 4136.37 2737.04 4193.54 2774.88 C 4212.27 2787.28 4195.63 2816.53 4175.8 2805.22" clip-path="url(#clip-1)"></path>
        <path id="path-10" style="fill:#623da1;fill-opacity:1;fill-rule:nonzero;stroke:none" d="M 4368.25 2833.9 C 4312.49 2808.7 4261.01 2773.4 4209.46 2740.63 C 4158.45 2708.2 4108.02 2674.83 4057.89 2641.04 C 3956.75 2572.84 3857.1 2502.46 3760.17 2428.38 C 3705.98 2386.96 3654.5 2342.58 3601.46 2299.78 C 3595.55 2295 3603.44 2284.63 3609.67 2289.15 C 3659.1 2325.08 3710.78 2358.11 3760.87 2393.13 C 3810.32 2427.72 3859.92 2462.14 3909.79 2496.14 C 4010.45 2564.8 4111.99 2631.94 4214.68 2697.53 C 4272.22 2734.28 4332.75 2768.03 4386.51 2810.22 C 4401 2821.59 4382.53 2840.36 4368.25 2833.9" clip-path="url(#clip-1)"></path>
        <path id="path-11" style="fill:#623da1;fill-opacity:1;fill-rule:nonzero;stroke:none" d="M 4506.77 2833.97 C 4449.92 2807.09 4397.56 2772.4 4344.66 2738.51 C 4292.61 2705.18 4241.04 2671.12 4189.97 2636.33 C 4087.58 2566.59 3986.9 2494.3 3889.63 2417.55 C 3862.85 2396.44 3835.97 2375.37 3809.74 2353.59 C 3782.06 2330.62 3756.2 2305.55 3728.05 2283.14 C 3722.43 2278.68 3730.37 2270.83 3735.94 2275.25 C 3760.72 2294.97 3787.29 2312.35 3813.35 2330.35 C 3839.06 2348.12 3864.01 2367.04 3889.43 2385.23 C 3939.58 2421.12 3989.84 2456.89 4040.52 2492.05 C 4141.25 2561.92 4242.73 2630.55 4346.17 2696.39 C 4404.77 2733.68 4465.34 2768.08 4521.03 2809.58 C 4535.52 2820.38 4523.45 2841.87 4506.77 2833.97" clip-path="url(#clip-1)"></path>
        <path id="path-12" style="fill:#623da1;fill-opacity:1;fill-rule:nonzero;stroke:none" d="M 4576.3 2764.42 C 4526.22 2745.49 4480.48 2712.04 4435.66 2683.21 C 4391.21 2654.61 4347.56 2624.89 4304.51 2594.23 C 4217.16 2532.03 4134.79 2464.68 4052.1 2396.53 C 4039.79 2386.4 4057.35 2369.16 4069.56 2379.07 C 4151.8 2445.82 4239.64 2507.04 4327.29 2566.42 C 4370.99 2596.02 4415.21 2624.89 4459.8 2653.11 C 4503.54 2680.79 4551.86 2704.87 4591.54 2738.23 C 4603.29 2748.1 4590.75 2769.88 4576.3 2764.42" clip-path="url(#clip-1)"></path>
        <path id="path-13" style="fill:#623da1;fill-opacity:1;fill-rule:nonzero;stroke:none" d="M 4693.87 2711.6 C 4647.89 2690.74 4605.05 2663.51 4561.92 2637.36 C 4518.77 2611.19 4476.2 2584.06 4433.89 2556.54 C 4349.13 2501.42 4266.51 2443.53 4184.67 2384.18 C 4171.28 2374.47 4183.84 2352.01 4197.85 2361.63 C 4280.95 2418.64 4365.91 2473.22 4451.47 2526.46 C 4494.32 2553.1 4537.55 2579.11 4580.83 2605.03 C 4624.1 2630.95 4668.72 2654.94 4710.04 2683.92 C 4727.08 2695.87 4712.63 2720.11 4693.87 2711.6" clip-path="url(#clip-1)"></path>
      </g>
      <path id="path-14" style="fill:#100f0d;fill-opacity:1;fill-rule:nonzero;stroke:none" d="M 441.199 230.967 C 442.226 231.513 441.95 232.081 441.809 233.641 C 441.705 234.821 441.598 236 441.493 237.177 C 441.092 241.631 440.689 246.088 440.288 250.544 C 439.979 253.98 440.17 259.46 437.215 260.066 C 435.877 260.338 434.439 260.051 433.1 259.965 C 431.586 259.868 430.075 259.763 428.563 259.654 C 425.452 259.426 422.338 259.152 419.227 258.851 C 406.694 257.635 394.178 255.982 381.696 253.895 C 378.596 253.376 375.499 252.834 372.406 252.264 C 369.409 251.707 366.398 250.889 363.39 250.54 C 362.293 250.412 361.082 250.642 360.231 251.788 C 359.374 252.943 359.186 254.56 359.016 256.181 C 358.641 259.734 358.281 263.287 357.918 266.844 C 348.895 254.455 339.87 242.069 330.845 229.678 C 340.113 220.338 349.518 211.291 359.021 202.508 C 358.987 205.887 358.941 209.274 359.031 212.636 C 359.157 217.287 361.898 217.159 364.354 217.498 C 370.512 218.349 376.806 219.143 382.976 218.288 C 384.971 218.427 386.964 218.592 388.955 218.787 C 395.734 219.459 402.498 220.443 409.233 221.793 C 415.419 223.034 421.583 224.581 427.704 226.416 C 430.691 227.309 433.668 228.268 436.633 229.304 C 438.132 229.833 439.745 230.197 441.199 230.967 Z M 444.912 231.628 C 444.933 229.845 444.492 228.358 443.421 227.51 C 442.111 226.47 440.339 226.271 438.901 225.796 C 437.37 225.293 435.836 224.808 434.301 224.334 C 431.229 223.394 428.147 222.524 425.058 221.728 C 418.776 220.115 412.46 218.799 406.122 217.786 C 399.895 216.79 393.648 216.084 387.392 215.708 C 384.233 215.516 381.063 214.655 377.888 214.394 C 374.435 214.115 370.977 213.966 367.528 213.564 C 366.203 213.409 364.882 213.235 363.561 213.045 C 363.363 213.017 362.112 213.074 361.976 212.803 C 361.759 212.374 361.934 210.826 361.937 210.29 C 361.944 206.386 361.954 202.475 361.961 198.569 C 361.963 196.936 360.714 195.813 359.772 196.68 C 348.954 206.599 338.317 216.916 327.814 227.564 C 327.087 228.301 326.804 229.95 327.524 230.939 C 337.652 244.831 347.78 258.729 357.908 272.623 C 358.617 273.595 360.121 273.376 360.292 271.679 C 360.588 268.754 360.888 265.828 361.179 262.899 C 361.313 261.57 361.448 260.237 361.579 258.909 C 361.68 257.887 361.615 256.192 361.978 255.289 C 362.549 253.871 365.189 255.062 366.043 255.22 C 367.898 255.574 369.753 255.914 371.61 256.242 C 378.859 257.534 386.122 258.676 393.392 259.67 C 406.338 261.443 419.314 262.701 432.3 263.629 C 434.756 263.803 437.817 264.617 440.049 262.6 C 442.215 260.637 442.583 256.679 442.908 253.255 C 443.348 248.547 443.79 243.835 444.235 239.127 C 444.466 236.679 444.884 234.103 444.912 231.628" transform="matrix(-0.988632, 0.150354, -0.150354, -0.988632, 802.931783, 408.871874)"></path>
    </g>
    <g transform="matrix(0.396157, 0, 0, 0.396157, 800.001038, 92.821968)">
      <path xmlns="http://www.w3.org/2000/svg" d="m383.605469 120.3125c-5.851563.003906-11.6875.585938-17.425781 1.746094-4.324219-21.582032-18.304688-39.992188-37.929688-49.957032-19.628906-9.964843-42.742188-10.386718-62.71875-1.140624-18.078125-49.792969-73.101562-75.507813-122.898438-57.425782-49.796874 18.078125-75.507812 73.101563-57.429687 122.898438-43.621094 1.378906-78.078125 37.480468-77.421875 81.121094.652344 43.636718 36.179688 78.691406 79.824219 78.757812h296c48.601562 0 88-39.398438 88-88 0-48.597656-39.398438-88-88-88zm0 0" fill="#a3d4f7" data-original="#a3d4f7" class=""></path>
      <path xmlns="http://www.w3.org/2000/svg" d="m383.605469 112.3125c-3.832031.003906-7.660157.234375-11.464844.691406-10.328125-33.632812-41.355469-56.617187-76.535156-56.691406-8.757813-.007812-17.453125 1.445312-25.730469 4.296875-20.488281-44.300781-69.042969-68.378906-116.707031-57.871094-47.667969 10.507813-81.597657 52.765625-81.5625 101.574219.003906 8.433594 1.054687 16.835938 3.117187 25.007812-45.414062 6.933594-77.859375 47.636719-74.484375 93.453126 3.371094 45.820312 41.425781 81.335937 87.367188 81.539062h296c53.019531 0 96-42.980469 96-96s-42.980469-96-96-96zm0 176h-296c-39.441407.171875-71.667969-31.441406-72.257813-70.878906-.585937-39.4375 30.683594-71.996094 70.113282-73 2.558593-.070313 4.929687-1.363282 6.375-3.476563 1.449218-2.113281 1.796874-4.789062.9375-7.203125-15.878907-45.441406 7.742187-95.203125 52.988281-111.632812 45.246093-16.429688 95.292969 6.589844 112.265625 51.632812.777344 2.089844 2.386718 3.757813 4.445312 4.609375 2.0625.851563 4.378906.804688 6.402344-.128906 8.375-3.894531 17.496094-5.914063 26.730469-5.921875 30.4375.054688 56.648437 21.496094 62.726562 51.320312.871094 4.335938 5.09375 7.140626 9.425781 6.265626 5.214844-1.046876 10.523438-1.578126 15.847657-1.585938 44.183593 0 80 35.820312 80 80 0 44.183594-35.816407 80-80 80zm0 0" fill="#000000" data-original="#000000" class=""></path>
      <path xmlns="http://www.w3.org/2000/svg" d="m383.605469 120.3125c-5.851563.003906-11.6875.585938-17.425781 1.746094-4.324219-21.582032-18.304688-39.992188-37.929688-49.957032-19.628906-9.964843-42.742188-10.386718-62.71875-1.140624-18.078125-49.792969-73.101562-75.507813-122.898438-57.425782-49.796874 18.078125-75.507812 73.101563-57.429687 122.898438-43.621094 1.378906-78.078125 37.480468-77.421875 81.121094.652344 43.636718 36.179688 78.691406 79.824219 78.757812h296c48.601562 0 88-39.398438 88-88 0-48.597656-39.398438-88-88-88zm0 0" fill="#a3d4f7" data-original="#a3d4f7" class="" transform="matrix(1, 0, 0, 1, 0.112655, 0.270871)"></path>
    </g>
    <g transform="matrix(3.666667, 0, 0, 3.666667, 802.002319, 159.834976)">
      <g xmlns="http://www.w3.org/2000/svg" id="Filled_outline" data-name="Filled outline">
        <g id="Original">
          <path d="m19 43h42v16h-42z" fill="#15b9eb" data-original="#15b9eb"></path>
          <path d="m19 43h42v16h-42z" fill="#3fa9f5" data-original="#3fa9f5" class=""></path>
          <path d="m53 43a13 13 0 0 1 -13 13h-21v3h42v-16z" opacity=".3" fill="#000000" data-original="#000000" class=""></path>
          <path d="m23 59h4v1h-4z" fill="#15b9eb" data-original="#15b9eb"></path>
          <path d="m53 59h4v1h-4z" fill="#15b9eb" data-original="#15b9eb"></path>
          <path d="m41 47h16v4h-16z" fill="#f8a747" data-original="#f8a747"></path>
          <path d="m19 24h42v16h-42z" fill="#3fa9f5" data-original="#3fa9f5" class=""></path>
          <path d="m53.71 24a16 16 0 0 1 -15.71 13h-19v3h42v-16z" opacity=".3" fill="#000000" data-original="#000000" class=""></path>
          <path d="m23 40h4v1h-4z" fill="#15b9eb" data-original="#15b9eb"></path>
          <path d="m53 40h4v1h-4z" fill="#15b9eb" data-original="#15b9eb"></path>
          <path d="m41 28h16v4h-16z" fill="#f8a747" data-original="#f8a747"></path>
          <path d="m19 5h42v16h-42z" fill="#3fa9f5" data-original="#3fa9f5" class=""></path>
          <path d="m23 21h4v1h-4z" fill="#15b9eb" data-original="#15b9eb"></path>
          <path d="m53 21h4v1h-4z" fill="#15b9eb" data-original="#15b9eb"></path>
          <path d="m54.48 5a16 16 0 0 1 -15.48 12h-20v4h42v-16z" opacity=".3" fill="#000000" data-original="#000000" class=""></path>
          <g fill="#f8a747">
            <path d="m41 9h16v4h-16z" fill="#f8a747" data-original="#f8a747"></path>
            <path d="m17 46c-7.73 0-14 1.79-14 4v7c0 2.21 6.27 4 14 4s14-1.79 14-4v-7c0-2.21-6.27-4-14-4z" fill="#f8a747" data-original="#f8a747"></path>
            <path d="m17 39c-7.73 0-14 1.79-14 4v7c0 2.21 6.27 4 14 4s14-1.79 14-4v-7c0-2.21-6.27-4-14-4z" fill="#f8a747" data-original="#f8a747"></path>
          </g>
          <path d="m17 32c-7.73 0-14 1.79-14 4v7c0 2.21 6.27 4 14 4s14-1.79 14-4v-7c0-2.21-6.27-4-14-4z" fill="#eeaf5d" data-original="#eeaf5d"></path>
          <path d="m31 36v7c0 2.21-6.27 4-14 4s-14-1.79-14-4v-7a1.89 1.89 0 0 1 1-1.44c2-1.5 7.06-2.56 13-2.56a37.79 37.79 0 0 1 10 1.19c2.46.73 4 1.72 4 2.81z" fill="#f8a747" data-original="#f8a747"></path>
          <path d="m27 40.2v6.8c0 2.21-5.37 4-12 4s-12-1.79-12-4v3c0 2.21 6.27 4 14 4s14-1.79 14-4v-7c0-1.09-1.53-2.08-4-2.8z" opacity=".3" fill="#000000" data-original="#000000" class=""></path>
          <path d="m27 47.2v6.8c0 2.21-5.37 4-12 4s-12-1.79-12-4v3c0 2.21 6.27 4 14 4s14-1.79 14-4v-7c0-1.09-1.53-2.08-4-2.8z" opacity=".3" fill="#000000" data-original="#000000" class=""></path>
          <path d="m27 33.2v6.8c0 2.21-5.37 4-12 4s-12-1.79-12-4v3c0 2.21 6.27 4 14 4s14-1.79 14-4v-7c0-1.09-1.53-2.08-4-2.8z" opacity=".3" fill="#000000" data-original="#000000" class=""></path>
          <path d="m31 36c0 2.21-6.27 4-14 4s-14-1.79-14-4a1.89 1.89 0 0 1 1-1.44c1.78 1.44 6 2.44 11 2.44 6.44 0 11.7-1.69 12-3.81 2.46.73 4 1.72 4 2.81z" opacity=".3" fill="#000000" data-original="#000000" class=""></path>
        </g>
        <g id="expand_outline" fill="#333" data-name="expand outline">
          <path d="m34 46h2v2h-2z" fill="#333333" data-original="#333333" class=""></path>
          <path d="m34 50h2v2h-2z" fill="#333333" data-original="#333333" class=""></path>
          <path d="m34 54h2v2h-2z" fill="#333333" data-original="#333333" class=""></path>
          <path d="m41 52h16a1 1 0 0 0 1-1v-4a1 1 0 0 0 -1-1h-16a1 1 0 0 0 -1 1v4a1 1 0 0 0 1 1zm1-4h14v2h-14z" fill="#333333" data-original="#333333" class=""></path>
          <path d="m41 56h16a1 1 0 0 0 0-2h-16a1 1 0 0 0 0 2z" fill="#333333" data-original="#333333" class=""></path>
          <path d="m22 27h2v2h-2z" fill="#333333" data-original="#333333" class=""></path>
          <path d="m26 27h2v2h-2z" fill="#333333" data-original="#333333" class=""></path>
          <path d="m30 27h2v2h-2z" fill="#333333" data-original="#333333" class=""></path>
          <path d="m34 27h2v2h-2z" fill="#333333" data-original="#333333" class=""></path>
          <path d="m30 31h2v2h-2z" fill="#333333" data-original="#333333" class=""></path>
          <path d="m34 31h2v2h-2z" fill="#333333" data-original="#333333" class=""></path>
          <path d="m34 35h2v2h-2z" fill="#333333" data-original="#333333" class=""></path>
          <path d="m41 33h16a1 1 0 0 0 1-1v-4a1 1 0 0 0 -1-1h-16a1 1 0 0 0 -1 1v4a1 1 0 0 0 1 1zm1-4h14v2h-14z" fill="#333333" data-original="#333333" class=""></path>
          <path d="m41 37h16a1 1 0 0 0 0-2h-16a1 1 0 0 0 0 2z" fill="#333333" data-original="#333333" class=""></path>
          <path d="m22 8h2v2h-2z" fill="#333333" data-original="#333333" class=""></path>
          <path d="m26 8h2v2h-2z" fill="#333333" data-original="#333333" class=""></path>
          <path d="m30 8h2v2h-2z" fill="#333333" data-original="#333333" class=""></path>
          <path d="m34 8h2v2h-2z" fill="#333333" data-original="#333333" class=""></path>
          <path d="m22 12h2v2h-2z" fill="#333333" data-original="#333333" class=""></path>
          <path d="m26 12h2v2h-2z" fill="#333333" data-original="#333333" class=""></path>
          <path d="m30 12h2v2h-2z" fill="#333333" data-original="#333333" class=""></path>
          <path d="m34 12h2v2h-2z" fill="#333333" data-original="#333333" class=""></path>
          <path d="m22 16h2v2h-2z" fill="#333333" data-original="#333333" class=""></path>
          <path d="m26 16h2v2h-2z" fill="#333333" data-original="#333333" class=""></path>
          <path d="m30 16h2v2h-2z" fill="#333333" data-original="#333333" class=""></path>
          <path d="m34 16h2v2h-2z" fill="#333333" data-original="#333333" class=""></path>
          <path d="m58 22h3a1 1 0 0 0 1-1v-16a1 1 0 0 0 -1-1h-42a1 1 0 0 0 -1 1v16a1 1 0 0 0 1 1h3a1 1 0 0 0 1 1h-4a1 1 0 0 0 -1 1v7h-1c-7.22 0-15 1.56-15 5v21c0 3.44 7.78 5 15 5 4.62 0 9.45-.64 12.34-2h22.66a1 1 0 0 0 1 1h4a1 1 0 0 0 1-1h3a1 1 0 0 0 1-1v-16a1 1 0 0 0 -1-1h-4a1 1 0 0 0 1-1h3a1 1 0 0 0 1-1v-16a1 1 0 0 0 -1-1h-4a1 1 0 0 0 1-1zm-38-2v-14h40v14zm-3 13c8.58 0 13 2.1 13 3s-4.42 3-13 3-13-2.1-13-3 4.42-3 13-3zm-13 5.67c2.78 1.59 8 2.33 13 2.33s10.22-.74 13-2.33v4.33c0 .9-4.42 3-13 3s-13-2.1-13-3zm0 7c2.78 1.59 8 2.33 13 2.33s10.22-.74 13-2.33v4.33c0 .9-4.42 3-13 3s-13-2.1-13-3zm0 11.33v-4.33c2.78 1.59 8 2.33 13 2.33s10.22-.74 13-2.33v4.33c0 .9-4.42 3-13 3s-13-2.1-13-3zm56-13v14h-28.26a2.22 2.22 0 0 0 .26-1v-13zm-7-2h-21v-1h20a1 1 0 0 0 1 1zm7-17v14h-28v-4h-.26c-.53-1.06-1.88-1.91-3.74-2.53v-1.47h-2v.9c-.64-.14-1.31-.27-2-.38v-.52h-2v.26c-.66-.07-1.33-.13-2-.17v-6.09zm-33-2a1 1 0 0 0 1-1h24a1 1 0 0 0 1 1z" fill="#333333" data-original="#333333" class=""></path>
          <path d="m41 14h16a1 1 0 0 0 1-1v-4a1 1 0 0 0 -1-1h-16a1 1 0 0 0 -1 1v4a1 1 0 0 0 1 1zm1-4h14v2h-14z" fill="#333333" data-original="#333333" class=""></path>
          <path d="m41 18h16a1 1 0 0 0 0-2h-16a1 1 0 0 0 0 2z" fill="#333333" data-original="#333333" class=""></path>
        </g>
      </g>
    </g>
    <g transform="matrix(1, 0, 0, 1, 108.196526, -28.938782)">
      <rect x="352.588" y="331.405" width="93" height="40" rx="8" ry="8" style="fill: rgb(0, 133, 228); stroke: rgba(0, 0, 0, 0);"></rect>
      <text style="fill: rgb(255, 255, 255); font-family: &quot;Segoe UI&quot;, sans-serif; font-size: 28px; font-weight: 700; white-space: pre;" x="368.623" y="361.589">Save</text>
    </g>
    <g transform="matrix(1, 0, 0, 1, 214.332993, -28.938782)">
      <rect x="351.623" y="331.405" width="94" height="40" rx="8" ry="8" style="stroke-width: 2px; fill: rgb(255, 255, 255); stroke: rgb(122, 122, 122);"></rect>
      <text style="fill: rgb(122, 122, 122); font-family: &quot;Segoe UI&quot;, sans-serif; font-size: 28px; font-weight: 700; white-space: pre;" x="355.623" y="361.589">Cancel</text>
    </g>
  </g>
</svg>