<svg viewBox="0 0 422 222" xmlns="http://www.w3.org/2000/svg">
  <defs></defs>
  <g transform="matrix(0.985782, 0, 0, 0.985782, 2.999992, 3.199044)">
    <rect width="420" height="220" rx="8" ry="8" style="stroke: rgb(132, 73, 128); fill: rgb(255, 255, 255); stroke-width: 5px;" y="-0.644" x="1"></rect>
    <text style="fill: rgb(126, 70, 122); font-family: &quot;Segoe UI&quot;, sans-serif; font-size: 45.649px; font-weight: 700; line-height: 81.1538px; white-space: pre;" transform="matrix(1, 0, 0, 1, 342.139374, 94.604836)"><tspan x="-314.028" y="-36.957">Meet the Experts</tspan><tspan x="-314.028" dy="1.2em">​</tspan></text>
    <g transform="matrix(2.766608, 0, 0, 2.766608, 144.60141, 72.375458)">
      <linearGradient xmlns="http://www.w3.org/2000/svg" id="linear-gradient" gradientUnits="userSpaceOnUse" x1="11.396" x2="36.604" y1="3.189" y2="28.396">
        <stop offset="0" stop-color="#ffd270"></stop>
        <stop offset="1" stop-color="#f79f63"></stop>
      </linearGradient>
      <linearGradient xmlns="http://www.w3.org/2000/svg" id="linear-gradient-2" gradientUnits="userSpaceOnUse" x1="16.293" x2="31.707" y1="32.293" y2="47.707">
        <stop offset="0" stop-color="#7f7f99"></stop>
        <stop offset="1" stop-color="#515072"></stop>
      </linearGradient>
      <linearGradient xmlns="http://www.w3.org/2000/svg" id="linear-gradient-3" gradientUnits="userSpaceOnUse" x1="19.146" x2="28.854" y1="37.439" y2="47.146">
        <stop offset="0" stop-color="#e4e9f4"></stop>
        <stop offset="1" stop-color="#bccbe2"></stop>
      </linearGradient>
      <linearGradient xmlns="http://www.w3.org/2000/svg" id="linear-gradient-4" gradientUnits="userSpaceOnUse" x1="19.5" x2="28.5" y1="9.5" y2="18.5">
        <stop offset="0" stop-color="#e9effd"></stop>
        <stop offset="1" stop-color="#c1d1eb"></stop>
      </linearGradient>
      <g xmlns="http://www.w3.org/2000/svg" id="Icons">
        <path d="m19 35 1.219-.813a4 4 0 0 0 1.781-3.328v-3.859l-4.411-3.208a16 16 0 0 1 -6.589-12.94v-6.852a1 1 0 0 1 1-1h24a1 1 0 0 1 1 1v6.852a16 16 0 0 1 -6.589 12.94l-4.411 3.208v3.859a4 4 0 0 0 1.781 3.328l1.219.813v1h-10z" fill="url(#linear-gradient)" data-original="url(#linear-gradient)" class=""></path>
        <path d="m34 45h-3l-1-1v-4h-12v4l-1 1h-3a1 1 0 0 1 -1-1v-8a1 1 0 0 1 1-1h20a1 1 0 0 1 1 1v8a1 1 0 0 1 -1 1z" fill="url(#linear-gradient-2)" data-original="url(#linear-gradient-2)" class=""></path>
        <path d="m17 45v-5a1 1 0 0 1 1-1h12a1 1 0 0 1 1 1v5z" fill="url(#linear-gradient-3)" data-original="url(#linear-gradient-3)"></path>
        <path d="m24 7 2 4h4l-3 3 1 5-4-3-4 3 1-5-3-3h4z" fill="url(#linear-gradient-4)" data-original="url(#linear-gradient-4)"></path>
        <g fill="#493a3a">
          <path d="m45 6h-7v-3a1 1 0 0 0 -1-1h-26a1 1 0 0 0 -1 1v3h-7a1 1 0 0 0 -1 1v2a11 11 0 0 0 10.67 10.98 16.994 16.994 0 0 0 4.33 4.62l4 2.91v3.35a3.006 3.006 0 0 1 -1.34 2.5l-.96.64h-5.7a1 1 0 0 0 -1 1v10a1 1 0 0 0 1 1h22a1 1 0 0 0 1-1v-10a1 1 0 0 0 -1-1h-5.7l-.96-.64a3.006 3.006 0 0 1 -1.34-2.5v-3.35l4-2.91a16.994 16.994 0 0 0 4.33-4.62 11 11 0 0 0 10.67-10.98v-2a1 1 0 0 0 -1-1zm-41 3v-1h6v2.85a16.983 16.983 0 0 0 1.53 7.02 9.007 9.007 0 0 1 -7.53-8.87zm26 35h-12v-4h12zm4-8v8h-2v-5a1 1 0 0 0 -1-1h-14a1 1 0 0 0 -1 1v5h-2v-8zm2-25.15a15.026 15.026 0 0 1 -6.18 12.13l-4.41 3.21a1 1 0 0 0 -.41.81v3.86a5 5 0 0 0 1.12 3.14h-4.24a5 5 0 0 0 1.12-3.14v-3.86a1 1 0 0 0 -.41-.81l-4.41-3.21a15.026 15.026 0 0 1 -6.18-12.13v-6.85h24zm8-1.85a9.007 9.007 0 0 1 -7.53 8.87 16.983 16.983 0 0 0 1.53-7.02v-2.85h6z" fill="#000000" data-original="#493a3a" class=""></path>
          <path d="m30.92 10.62a.987.987 0 0 0 -.92-.62h-3.38l-1.73-3.45a1.039 1.039 0 0 0 -1.78 0l-1.73 3.45h-3.38a.987.987 0 0 0 -.92.62 1 1 0 0 0 .21 1.09l2.62 2.62-.89 4.47a1.021 1.021 0 0 0 .45 1.05 1 1 0 0 0 1.13-.05l3.4-2.55 3.4 2.55a1.029 1.029 0 0 0 .6.2 1 1 0 0 0 .98-1.2l-.89-4.47 2.62-2.62a1 1 0 0 0 .21-1.09zm-4.63 2.67a1.018 1.018 0 0 0 -.27.91l.49 2.43-1.91-1.43a1 1 0 0 0 -1.2 0l-1.91 1.43.49-2.43a1.018 1.018 0 0 0 -.27-.91l-1.3-1.29h1.59a.977.977 0 0 0 .89-.55l1.11-2.21 1.11 2.21a.977.977 0 0 0 .89.55h1.59z" fill="#000000" data-original="#493a3a" class=""></path>
        </g>
      </g>
    </g>
  </g>
</svg>