<svg viewBox="0 0 298 160" xmlns="http://www.w3.org/2000/svg">
  <defs></defs>
  <rect width="294" height="154" rx="8" ry="8" style="stroke: rgb(132, 73, 128); fill: rgb(255, 255, 255); stroke-width: 5px;" y="3" x="2"></rect>
  <text style="fill: rgb(126, 70, 122); font-family: &quot;Segoe UI&quot;, sans-serif; font-size: 42.8571px; font-weight: 700; line-height: 81.1538px; white-space: pre;" transform="matrix(0.7, 0, 0, 0.7, 237.894348, 69.674187)"><tspan x="-314.028" y="-36.957">Microsoft Samples</tspan><tspan x="-314.028" dy="1.2em">​</tspan></text>
  <g transform="matrix(1.95238, 0, 0, 1.95238, 86.518951, 19.987091)">
    <path xmlns="http://www.w3.org/2000/svg" d="m9 22h46v40h-46z" fill="#e5a87f" data-original="#e5a87f"></path>
    <path xmlns="http://www.w3.org/2000/svg" d="m11.821 47.821a10.179 10.179 0 0 0 10.179 10.179h33v-36h-43.179z" fill="#edba94" data-original="#edba94" class=""></path>
    <path xmlns="http://www.w3.org/2000/svg" d="m9 22-7 14h7z" fill="#edba94" data-original="#edba94" class=""></path>
    <path xmlns="http://www.w3.org/2000/svg" d="m9 22h46l-4 14h-38z" fill="#e5a87f" data-original="#e5a87f"></path>
    <path xmlns="http://www.w3.org/2000/svg" d="m49.564 33.291 3.436-11.291h-42l3.436 11.291a1 1 0 0 0 .957.709h33.214a1 1 0 0 0 .957-.709z" fill="#edba94" data-original="#edba94" class=""></path>
    <path xmlns="http://www.w3.org/2000/svg" d="m55 36h7l-7-14z" fill="#e5a87f" data-original="#e5a87f"></path>
    <path xmlns="http://www.w3.org/2000/svg" d="M 35 40.982 L 51 40.982 L 51 58 L 35 58 L 35 40.982 Z" fill="#ffd268" data-original="#ffd268" style=""></path>
    <path xmlns="http://www.w3.org/2000/svg" d="M 36 52.859 C 36 55.146 37.273 57 38.844 57 L 51 57 L 51 40.982 L 36 40.982 L 36 52.859 Z" fill="#ffe17d" data-original="#ffe17d" class="" style=""></path>
    <path xmlns="http://www.w3.org/2000/svg" d="m62.9 35.553-7-14a1 1 0 0 0 -.9-.553h-46a1 1 0 0 0 -.895.553l-7 14a1 1 0 0 0 .895 1.447h6v25a1 1 0 0 0 1 1h46a1 1 0 0 0 1-1v-25h6a1 1 0 0 0 .9-1.447zm-9.226-12.553-3.428 12h-36.492l-3.428-12zm-50.056 12 4.382-8.764v8.764zm6.382 26v-31.858l2.038 7.133a1 1 0 0 0 .962.725h38a1 1 0 0 0 .962-.725l2.038-7.133v31.858zm46-26v-8.764l4.382 8.764z" fill="#000000" data-original="#000000" class=""></path>
    <g transform="matrix(0.030011, 0, 0, 0.030011, 35.303955, 41.634304)">
      <g xmlns="http://www.w3.org/2000/svg">
        <g>
          <g>
            <g>
              <g>
                <path d="m291.165 504.5h-70.329c-13.496 0-24.437-10.941-24.437-24.437v-68.787h119.203v68.787c0 13.496-10.941 24.437-24.437 24.437z" fill="#eaf2ff" data-original="#eaf2ff"></path>
                <path d="m283.177 451.175c0 12.093-9.803 21.896-21.896 21.896h-.675v6.992c0 13.496-10.941 24.437-24.437 24.437h54.995c13.496 0 24.437-10.941 24.437-24.437v-68.787h-32.424z" fill="#c9e0fd" data-original="#c9e0fd"></path>
                <path d="m316.277 473.071h-120.554c-12.093 0-21.896-9.803-21.896-21.896v-106.632h164.345v106.632c.001 12.093-9.802 21.896-21.895 21.896z" fill="#eaf2ff" data-original="#eaf2ff"></path>
                <path d="m331.105 391.362c10.56 0 19.658-7.504 21.587-17.886 5.517-29.693 18.396-57.722 37.805-81.3 24.752-30.067 39.616-68.576 39.616-110.562 0-97.808-80.647-176.779-179.071-174.044-93.226 2.589-168.322 79.207-169.148 172.466-.378 42.612 14.558 81.721 39.634 112.168 19.407 23.563 32.271 51.585 37.783 81.268 1.928 10.384 11.026 17.89 21.587 17.89z" fill="#ffd064" data-original="#ffd064" class=""></path>
              </g>
              <g>
                <path d="m297.696 373.476c-1.479 7.962-7.181 14.216-14.519 16.707v60.993c0 12.093-9.803 21.896-21.896 21.896h54.995c12.093 0 21.896-9.803 21.896-21.896v-106.633h-32.554c-3.426 9.395-6.089 19.069-7.922 28.933z" fill="#c9e0fd" data-original="#c9e0fd"></path>
                <path d="m251.042 7.569c-7.636.212-15.148.93-22.51 2.104 83.078 13.197 146.586 85.148 146.586 171.94 0 41.986-14.865 80.495-39.616 110.562-19.41 23.578-32.288 51.607-37.805 81.3-1.479 7.962-7.181 14.216-14.519 16.707v1.18h47.928c10.56 0 19.658-7.504 21.587-17.886 5.517-29.693 18.395-57.722 37.805-81.3 24.751-30.067 39.616-68.576 39.616-110.562-.001-97.808-80.648-176.78-179.072-174.045z" fill="#ffc250" data-original="#ffc250"></path>
              </g>
              <g>
                <path d="m173.827 431.567v19.609c0 12.093 9.803 21.896 21.896 21.896h120.554c12.093 0 21.896-9.803 21.896-21.896v-19.609z" fill="#c9e0fd" data-original="#c9e0fd"></path>
              </g>
              <path d="m338.173 451.175v-19.609h-54.995v19.609c0 12.093-9.803 21.896-21.896 21.896h54.995c12.093 0 21.896-9.803 21.896-21.896z" fill="#9bc4f9" data-original="#9bc4f9"></path>
            </g>
          </g>
        </g>
        <g>
          <path d="m391.564 60.752c-2.758-3.09-7.497-3.36-10.59-.603-3.091 2.757-3.36 7.499-.604 10.589 55.159 61.823 55.969 153.956 4.342 216.672-19.983 24.274-33.603 53.561-39.389 84.696-1.289 6.937-7.381 11.756-14.213 11.756h-48.648l5.45-95.478h30.217c18.951 0 34.369-15.418 34.369-34.37s-15.418-34.37-34.37-34.37c-23.169 0-42.351 18.119-43.672 41.25l-.713 12.49h-35.474l-.713-12.491c-1.321-23.13-20.503-41.249-43.671-41.249-18.952 0-34.37 15.418-34.371 34.37-.001 18.994 15.371 34.37 34.369 34.37h30.218l5.45 95.478h-48.646c-6.851 0-12.929-4.839-14.214-11.759-5.782-31.139-19.394-60.417-39.368-84.667-53.093-64.466-51.027-160.291 9.856-222.382 30.433-31.036 70.946-48.788 114.077-49.987 37.869-1.064 73.886 10.292 104.132 32.807 3.324 2.473 8.021 1.786 10.495-1.538 2.473-3.323 1.784-8.021-1.538-10.495-32.975-24.546-72.229-36.918-113.506-35.767-47.035 1.307-91.203 20.654-124.37 54.479-66.333 67.648-68.619 172.125-10.724 242.42 18.362 22.294 30.879 49.221 36.198 77.869 1.627 8.758 7.054 16.003 14.391 20.173v56.162c0 13.859 9.644 25.501 22.571 28.588v.3c0 17.61 14.327 31.937 31.937 31.937h70.329c17.609 0 31.936-14.327 31.936-31.937v-.3c12.928-3.086 22.571-14.728 22.571-28.588v-56.16c7.338-4.169 12.766-11.412 14.393-20.17 5.322-28.645 17.848-55.584 36.222-77.904 56.3-68.392 55.375-168.823-4.729-236.191zm-102.131 200.996c.867-15.199 13.472-27.104 28.696-27.104 10.68 0 19.369 8.689 19.369 19.37s-8.689 19.37-19.369 19.37h-29.361zm-95.55 11.636c-10.705 0-19.369-8.663-19.369-19.37 0-10.681 8.69-19.371 19.371-19.371 15.223 0 27.828 11.906 28.696 27.104l.664 11.636h-29.362zm79.005 15-5.451 95.478h-22.862l-5.45-95.478zm18.283 208.616h-70.329c-9.168 0-16.639-7.326-16.911-16.429h104.151c-.272 9.103-7.744 16.429-16.911 16.429zm39.508-72.933h-95.589c-4.142 0-7.5 3.358-7.5 7.5s3.358 7.5 7.5 7.5h95.589v12.109c0 7.938-6.458 14.396-14.395 14.396h-120.554c-7.938 0-14.396-6.458-14.396-14.396v-12.109h18.697c4.142 0 7.5-3.358 7.5-7.5s-3.358-7.5-7.5-7.5h-18.697v-25.204h149.345z" fill="#000000" data-original="#000000" class=""></path>
        </g>
      </g>
    </g>
    <g transform="matrix(1.037058, 0, 0, 1.037058, -73.11129, -53.532921)">
      <path fill="#f3f3f3" d="M 83.379 93.607 L 97.208 93.607 L 97.208 107.436 L 83.379 107.436 L 83.379 93.607 Z"></path>
      <path fill="#f35325" d="M 83.98 94.208 L 89.993 94.208 L 89.993 100.221 L 83.98 100.221 L 83.98 94.208 Z"></path>
      <path fill="#81bc06" d="M 90.594 94.208 L 96.607 94.208 L 96.607 100.221 L 90.594 100.221 L 90.594 94.208 Z"></path>
      <path fill="#05a6f0" d="M 83.98 100.822 L 89.993 100.822 L 89.993 106.835 L 83.98 106.835 L 83.98 100.822 Z"></path>
      <path fill="#ffba08" d="M 90.594 100.822 L 96.607 100.822 L 96.607 106.835 L 90.594 106.835 L 90.594 100.822 Z"></path>
    </g>
  </g>
  <line style="fill: rgb(166, 209, 48); stroke-linecap: round; stroke-linejoin: bevel; stroke: rgb(132, 73, 128);" x1="5" y1="63.987" x2="97.146" y2="154.265"></line>
  <line style="fill: rgb(166, 209, 48); stroke-linecap: round; stroke-linejoin: bevel; stroke: rgb(132, 73, 128);" x1="5" y1="105" x2="55.001" y2="153.988"></line>
  <text style="fill: rgb(126, 70, 122); font-family: &quot;Segoe UI&quot;, sans-serif; font-size: 31.4286px; font-weight: 700; line-height: 81.1538px; white-space: pre;" transform="matrix(0.503569, 0.486229, -0.486229, 0.503569, 160.09816, 282.437439)"><tspan x="-314.028" y="-36.957">PnP</tspan><tspan x="-314.028" dy="1.2em">​</tspan></text>
</svg>