<svg viewBox="0 0 422 450" xmlns="http://www.w3.org/2000/svg" xmlns:xlink="http://www.w3.org/1999/xlink">
  <defs></defs>
  <g>
    <rect width="422" height="450" rx="4" ry="4" style="stroke: rgb(132, 73, 128); fill: rgb(255, 255, 255); stroke-width: 5px;"></rect>
    <g transform="matrix(4.189655, 0, 0, 4.189655, 146.249847, 175.43103)">
      <linearGradient xmlns="http://www.w3.org/2000/svg" id="linear-gradient" gradientUnits="userSpaceOnUse" x1="42.5" x2="70.5" y1="42.5" y2="14.5">
        <stop offset="0" stop-color="#80b4ff"></stop>
        <stop offset="1" stop-color="#5d88f4"></stop>
      </linearGradient>
      <linearGradient xmlns="http://www.w3.org/2000/svg" id="linear-gradient-2" gradientUnits="userSpaceOnUse" x1="14.5" x2="42.5" y1="70.5" y2="42.5">
        <stop offset="0" stop-color="#617093"></stop>
        <stop offset="1" stop-color="#3d4860"></stop>
      </linearGradient>
      <linearGradient xmlns="http://www.w3.org/2000/svg" id="linear-gradient-3" gradientUnits="userSpaceOnUse" x1="20.849" x2="29.335" y1="29.335" y2="20.849">
        <stop offset="0" stop-color="#f95555"></stop>
        <stop offset="1" stop-color="#d81d1d"></stop>
      </linearGradient>
      <linearGradient xmlns="http://www.w3.org/2000/svg" id="linear-gradient-4" gradientUnits="userSpaceOnUse" x1="33.577" x2="42.062" y1="42.062" y2="33.577">
        <stop offset="0" stop-color="#769bd3"></stop>
        <stop offset="1" stop-color="#e3f2fd"></stop>
      </linearGradient>
      <linearGradient xmlns="http://www.w3.org/2000/svg" id="linear-gradient-5" gradientTransform="matrix(.707 .707 -.707 .707 9.536 -3.95)" gradientUnits="userSpaceOnUse" x1="5.293" x2="13.778" y1="13.778" y2="5.293">
        <stop offset="0" stop-color="#ffce62"></stop>
        <stop offset="1" stop-color="#f4a519"></stop>
      </linearGradient>
      <linearGradient xmlns="http://www.w3.org/2000/svg" id="linear-gradient-6" gradientTransform="matrix(.707 .707 -.707 .707 13.071 -5.414)" x1="8.828" x2="17.314" y1="17.314" y2="8.828" xlink:href="#linear-gradient-4"></linearGradient>
      <linearGradient xmlns="http://www.w3.org/2000/svg" id="linear-gradient-7" gradientUnits="userSpaceOnUse" x1="7.793" x2="14.207" y1="59.793" y2="53.379">
        <stop offset="0" stop-color="#e3f2fd"></stop>
        <stop offset="1" stop-color="#fff"></stop>
      </linearGradient>
      <linearGradient xmlns="http://www.w3.org/2000/svg" id="linear-gradient-8" x1="17.793" x2="24.207" y1="59.793" y2="53.379" xlink:href="#linear-gradient-7"></linearGradient>
      <linearGradient xmlns="http://www.w3.org/2000/svg" id="linear-gradient-9" x1="27.793" x2="34.207" y1="59.793" y2="53.379" xlink:href="#linear-gradient-7"></linearGradient>
      <linearGradient xmlns="http://www.w3.org/2000/svg" id="linear-gradient-10" x1="37.793" x2="44.207" y1="59.793" y2="53.379" xlink:href="#linear-gradient-7"></linearGradient>
      <path xmlns="http://www.w3.org/2000/svg" d="m60 60-14-14v-42h14z" fill="url(#linear-gradient)" data-original="url(#linear-gradient)"></path>
      <path xmlns="http://www.w3.org/2000/svg" d="m60 60h-56v-14h42z" fill="url(#linear-gradient-2)" data-original="url(#linear-gradient-2)"></path>
      <path xmlns="http://www.w3.org/2000/svg" d="m38.527 30.042-1.414 4.242h-2.829v2.829l-4.242 1.414-19.799-19.799 8.485-8.485z" fill="url(#linear-gradient-3)" data-original="url(#linear-gradient-3)"></path>
      <path xmlns="http://www.w3.org/2000/svg" d="m30.042 38.527 11.313 2.828-2.828-11.313-1.414 4.242h-2.829v2.829z" fill="url(#linear-gradient-4)" data-original="url(#linear-gradient-4)"></path>
      <path xmlns="http://www.w3.org/2000/svg" d="m5.536 6.536h8a2 2 0 0 1 2 2v4a0 0 0 0 1 0 0h-12a0 0 0 0 1 0 0v-4a2 2 0 0 1 2-2z" fill="url(#linear-gradient-5)" transform="matrix(.707 -.707 .707 .707 -3.95 9.536)" data-original="url(#linear-gradient-5)"></path>
      <path xmlns="http://www.w3.org/2000/svg" d="m7.071 11.071h12v4h-12z" fill="url(#linear-gradient-6)" transform="matrix(.707 -.707 .707 .707 -5.414 13.071)" data-original="url(#linear-gradient-6)"></path>
      <path xmlns="http://www.w3.org/2000/svg" d="m10 52h2a2 2 0 0 1 2 2v6a0 0 0 0 1 0 0h-6a0 0 0 0 1 0 0v-6a2 2 0 0 1 2-2z" fill="url(#linear-gradient-7)" data-original="url(#linear-gradient-7)"></path>
      <path xmlns="http://www.w3.org/2000/svg" d="m20 52h2a2 2 0 0 1 2 2v6a0 0 0 0 1 0 0h-6a0 0 0 0 1 0 0v-6a2 2 0 0 1 2-2z" fill="url(#linear-gradient-8)" data-original="url(#linear-gradient-8)"></path>
      <path xmlns="http://www.w3.org/2000/svg" d="m30 52h2a2 2 0 0 1 2 2v6a0 0 0 0 1 0 0h-6a0 0 0 0 1 0 0v-6a2 2 0 0 1 2-2z" fill="url(#linear-gradient-9)" data-original="url(#linear-gradient-9)"></path>
      <path xmlns="http://www.w3.org/2000/svg" d="m40 52h2a2 2 0 0 1 2 2v6a0 0 0 0 1 0 0h-6a0 0 0 0 1 0 0v-6a2 2 0 0 1 2-2z" fill="url(#linear-gradient-10)" data-original="url(#linear-gradient-10)"></path>
      <path xmlns="http://www.w3.org/2000/svg" d="m61 4a1 1 0 0 0 -1-1h-14a1 1 0 0 0 -1 1v41h-41a1 1 0 0 0 -1 1v14a1 1 0 0 0 1 1h56a1 1 0 0 0 .924-.617 1.843 1.843 0 0 0 .076-.383zm-2 1v2h-6v2h6v2h-2v2h2v2h-6v2h6v2h-2v2h2v2h-6v2h6v2h-2v2h2v2h-6v2h6v2h-2v2h2v2h-6v2h6v2h-2v2h2v2h-6v2h6v2h-2v2h2v4.586l-12-12v-40.586zm-50 54v-5a1 1 0 0 1 1-1h2a1 1 0 0 1 1 1v5zm14 0h-4v-5a1 1 0 0 1 1-1h2a1 1 0 0 1 1 1zm10 0h-4v-5a1 1 0 0 1 1-1h2a1 1 0 0 1 1 1zm10 0h-4v-5a1 1 0 0 1 1-1h2a1 1 0 0 1 1 1zm2 0v-5a3 3 0 0 0 -3-3h-2a3 3 0 0 0 -3 3v5h-2v-5a3 3 0 0 0 -3-3h-2a3 3 0 0 0 -3 3v5h-2v-5a3 3 0 0 0 -3-3h-2a3 3 0 0 0 -3 3v5h-2v-5a3 3 0 0 0 -3-3h-2a3 3 0 0 0 -3 3v5h-2v-12h40.586l12 12z" fill="#000000" data-original="#000000"></path>
      <path xmlns="http://www.w3.org/2000/svg" d="m42.325 41.113-2.825-11.313a1.008 1.008 0 0 0 -.262-.465l-25.46-25.456a3 3 0 0 0 -4.243 0l-5.656 5.656a3 3 0 0 0 0 4.243l25.456 25.456a.978.978 0 0 0 .469.246l11.309 2.845a.949.949 0 0 0 .242.03 1 1 0 0 0 .97-1.242zm-25.011-30.871-7.072 7.072-1.414-1.414 7.072-7.072zm-12.314 1.415a.993.993 0 0 1 .293-.707l5.656-5.657a1 1 0 0 1 1.415 0l2.121 2.121-7.071 7.071-2.121-2.121a.993.993 0 0 1 -.293-.707zm6.656 7.071 7.072-7.072 18.655 18.656-.991 2.972h-2.108a1 1 0 0 0 -1 1v2.108l-2.972.991zm21.958 19.662.987-.329a1 1 0 0 0 .683-.949v-1.828h1.828a1 1 0 0 0 .949-.683l.329-.988 1.591 6.368z" fill="#000000" data-original="#000000"></path>
    </g>
    <text style="fill: rgb(126, 70, 122); font-family: &quot;Segoe UI&quot;, sans-serif; font-size: 65px; font-weight: 700; white-space: pre;" transform="matrix(1, 0, 0, 1, 344.268066, 111.849968)"><tspan x="-314.028" y="-36.957">Templates</tspan><tspan x="-314.028" dy="1.2em">​</tspan><tspan>Wiki</tspan></text>
    <g transform="matrix(1.305394, 0, 0, 1.305394, 18.467209, 183.03801)">
      <linearGradient xmlns="http://www.w3.org/2000/svg" id="SVGID_1_" gradientUnits="userSpaceOnUse" x1="13.567" x2="47.989" y1="24.809" y2="44.682">
        <stop stop-opacity="1" stop-color="#fffedd" offset="0"></stop>
        <stop stop-opacity="1" stop-color="#e9a800" offset="1"></stop>
      </linearGradient>
      <path xmlns="http://www.w3.org/2000/svg" d="m20.011 51.029c-.164 0-.345-.094-.463-.239-.135-.167-.123-.315-.102-.413.737-3.387 1.659-6.798 2.736-10.132.684-2.083-.057-4.353-1.845-5.639-2.839-2.071-5.586-4.29-8.154-6.587-.198-.178-.179-.402-.127-.56.042-.13.154-.353.428-.381 3.471-.351 7-.529 10.486-.529 2.2 0 4.126-1.402 4.794-3.49 1.049-3.243 2.311-6.544 3.746-9.804.108-.246.353-.283.489-.283s.381.037.49.285c1.435 3.258 2.696 6.559 3.747 9.808.684 2.087 2.609 3.484 4.792 3.484 3.486 0 7.016.179 10.489.53.259.027.377.223.428.382.042.13.082.375-.125.562-2.586 2.305-5.337 4.524-8.171 6.591-1.777 1.278-2.518 3.548-1.832 5.64 1.075 3.324 1.997 6.736 2.736 10.132.021.094.033.238-.097.399-.118.146-.302.24-.468.24-.078 0-.15-.021-.228-.065-2.994-1.734-5.954-3.661-8.797-5.729-.865-.631-1.891-.965-2.963-.965s-2.098.334-2.968.968c-2.83 2.057-5.787 3.984-8.787 5.728-.079.045-.154.067-.234.067z" fill="url(#SVGID_1_)" data-original="url(#SVGID_1_)"></path>
      <g xmlns="http://www.w3.org/2000/svg" id="ARC_285_">
        <g>
          <path d="m22.968 25.553c-.552 0-1-.447-1-1s.448-1 1-1c.888 0 1.669-.567 1.943-1.411.17-.525.732-.813 1.26-.643.525.171.813.734.642 1.26-.542 1.671-2.087 2.794-3.845 2.794z" fill="#000000" data-original="#541491" class=""></path>
        </g>
      </g>
      <g xmlns="http://www.w3.org/2000/svg" id="ARC_284_">
        <g>
          <path d="m12.278 26.095c-.507 0-.941-.384-.994-.898-.056-.55.344-1.04.894-1.097 3.568-.363 7.189-.547 10.762-.547.544-.017 1.028.438 1.028 1 0 .553-.448 1-1 1-.004-.008-.019 0-.028 0-3.505 0-7.058.181-10.56.537-.034.003-.068.005-.102.005z" fill="#000000" data-original="#541491" class=""></path>
        </g>
      </g>
      <g xmlns="http://www.w3.org/2000/svg" id="ARC_283_">
        <g>
          <path d="m25.862 23.45c-.102 0-.206-.016-.309-.049-.525-.171-.813-.734-.643-1.26 1.108-3.414 2.406-6.811 3.855-10.095.223-.504.813-.734 1.319-.511.505.224.734.813.511 1.319-1.422 3.222-2.695 6.554-3.783 9.903-.136.425-.528.693-.95.693z" fill="#000000" data-original="#541491" class=""></path>
        </g>
      </g>
      <g xmlns="http://www.w3.org/2000/svg" id="ARC_282_">
        <g>
          <path d="m41.033 25.553c-1.757 0-3.302-1.123-3.845-2.794-.17-.525.117-1.089.642-1.26.528-.171 1.09.117 1.26.643.274.844 1.055 1.411 1.943 1.411.552 0 1 .447 1 1s-.448 1-1 1z" fill="#000000" data-original="#541491" class=""></path>
        </g>
      </g>
      <g xmlns="http://www.w3.org/2000/svg" id="ARC_281_">
        <g>
          <path d="m38.139 23.45c-.422 0-.814-.269-.951-.691-1.087-3.35-2.36-6.682-3.783-9.903-.223-.506.006-1.096.511-1.319.505-.224 1.096.007 1.319.511 1.449 3.284 2.747 6.681 3.855 10.095.17.525-.117 1.089-.643 1.26-.102.032-.206.047-.308.047z" fill="#000000" data-original="#541491" class=""></path>
        </g>
      </g>
      <g xmlns="http://www.w3.org/2000/svg" id="ARC_280_">
        <g>
          <path d="m51.723 26.095c-.034 0-.068-.002-.102-.005-3.501-.356-7.054-.537-10.56-.537-.588-.003-1.028-.438-1.028-1s.452-1.017 1.028-1c3.573 0 7.193.184 10.762.547.55.057.95.547.894 1.097-.053.514-.488.898-.994.898z" fill="#000000" data-original="#541491" class=""></path>
        </g>
      </g>
      <g xmlns="http://www.w3.org/2000/svg" id="ARC_279_">
        <g>
          <path d="m43.721 40.631c-.422 0-.814-.269-.951-.691-.543-1.672.048-3.488 1.47-4.521.446-.324 1.073-.226 1.396.222.325.447.225 1.072-.222 1.397-.718.521-1.017 1.439-.742 2.284.17.525-.117 1.089-.642 1.26-.103.033-.207.049-.309.049z" fill="#000000" data-original="#541491" class=""></path>
        </g>
      </g>
      <g xmlns="http://www.w3.org/2000/svg" id="ARC_278_">
        <g>
          <path d="m44.828 37.229c-.31 0-.614-.143-.81-.412-.325-.447-.226-1.072.221-1.397 2.845-2.066 5.621-4.306 8.25-6.657.411-.368 1.044-.333 1.412.078.369.412.333 1.044-.079 1.412-2.679 2.396-5.508 4.68-8.407 6.786-.178.128-.384.19-.587.19z" fill="#000000" data-original="#541491" class=""></path>
        </g>
      </g>
      <g xmlns="http://www.w3.org/2000/svg" id="ARC_277_">
        <g>
          <path d="m46.508 50.964c-.461 0-.875-.32-.977-.789-.745-3.446-1.674-6.891-2.762-10.234-.17-.525.117-1.09.642-1.261.526-.17 1.089.117 1.26.642 1.108 3.409 2.055 6.918 2.814 10.432.117.54-.227 1.071-.766 1.188-.07.015-.141.022-.211.022z" fill="#000000" data-original="#541491" class=""></path>
        </g>
      </g>
      <g xmlns="http://www.w3.org/2000/svg" id="ARC_276_">
        <g>
          <path d="m33.789 47.847c-.204 0-.409-.063-.587-.191-.719-.521-1.684-.521-2.402 0-.448.325-1.072.226-1.397-.221s-.226-1.072.221-1.396c1.422-1.033 3.332-1.033 4.754 0 .447.324.546.95.221 1.396-.196.269-.501.412-.81.412z" fill="#000000" data-original="#541491" class=""></path>
        </g>
      </g>
      <g xmlns="http://www.w3.org/2000/svg" id="ARC_275_">
        <g>
          <path d="m42.754 53.69c-.171 0-.344-.044-.502-.136-3.103-1.805-6.148-3.789-9.051-5.899-.447-.324-.546-.95-.221-1.396.325-.447.949-.545 1.397-.221 2.848 2.069 5.836 4.017 8.881 5.788.477.277.639.89.361 1.367-.185.32-.52.497-.865.497z" fill="#000000" data-original="#541491" class=""></path>
        </g>
      </g>
      <g xmlns="http://www.w3.org/2000/svg" id="ARC_274_">
        <g>
          <path d="m21.247 53.69c-.345 0-.68-.178-.865-.497-.278-.478-.116-1.09.361-1.367 3.045-1.771 6.033-3.719 8.881-5.788.447-.324 1.072-.227 1.397.221.325.446.226 1.072-.221 1.396-2.903 2.11-5.948 4.095-9.051 5.899-.159.092-.332.136-.502.136z" fill="#000000" data-original="#541491" class=""></path>
        </g>
      </g>
      <g xmlns="http://www.w3.org/2000/svg" id="ARC_273_">
        <g>
          <path d="m20.28 40.631c-.102 0-.206-.016-.309-.049-.525-.171-.813-.734-.642-1.26.274-.845-.024-1.763-.742-2.284-.447-.325-.546-.95-.222-1.397.323-.447.949-.546 1.396-.222 1.422 1.032 2.013 2.849 1.47 4.521-.137.422-.529.691-.951.691z" fill="#000000" data-original="#541491" class=""></path>
        </g>
      </g>
      <g xmlns="http://www.w3.org/2000/svg" id="ARC_272_">
        <g>
          <path d="m17.493 50.964c-.07 0-.141-.007-.212-.022-.54-.117-.883-.648-.766-1.188.759-3.514 1.706-7.022 2.814-10.432.171-.524.738-.81 1.26-.642.525.171.813.735.642 1.261-1.088 3.344-2.017 6.788-2.762 10.234-.101.469-.515.789-.976.789z" fill="#000000" data-original="#541491" class=""></path>
        </g>
      </g>
      <g xmlns="http://www.w3.org/2000/svg" id="ARC_271_">
        <g>
          <path d="m19.173 37.229c-.204 0-.409-.062-.587-.19-2.899-2.106-5.728-4.39-8.407-6.786-.412-.368-.447-1-.079-1.412.368-.411 1-.446 1.412-.078 2.629 2.352 5.405 4.591 8.25 6.657.447.325.546.95.221 1.397-.195.269-.5.412-.81.412z" fill="#000000" data-original="#541491" class=""></path>
        </g>
      </g>
      <g xmlns="http://www.w3.org/2000/svg" id="ARC_270_">
        <g>
          <path d="m10.845 30.507c-.237 0-.476-.084-.667-.255-1.044-.935-1.419-2.359-.977-3.718.442-1.36 1.583-2.293 2.977-2.435.543-.052 1.04.345 1.096.895.056.549-.345 1.04-.894 1.096-.603.061-1.081.458-1.277 1.063-.196.604-.043 1.205.409 1.609.412.368.446 1.001.078 1.412-.196.221-.47.333-.745.333z" fill="#000000" data-original="#541491" class=""></path>
        </g>
      </g>
      <g xmlns="http://www.w3.org/2000/svg" id="ARC_269_">
        <g>
          <path d="m20.003 54.03c-.728 0-1.456-.232-2.09-.692-1.159-.841-1.694-2.215-1.399-3.585.117-.54.644-.886 1.188-.767.54.116.883.648.767 1.188-.128.593.104 1.171.619 1.545.513.372 1.13.41 1.654.106.477-.277 1.089-.117 1.368.361.278.477.116 1.089-.361 1.367-.546.32-1.146.477-1.746.477z" fill="#000000" data-original="#541491" class=""></path>
        </g>
      </g>
      <g xmlns="http://www.w3.org/2000/svg" id="ARC_268_">
        <g>
          <path d="m43.997 54.029c-.599 0-1.198-.157-1.744-.475-.477-.277-.639-.89-.361-1.367.277-.478.889-.64 1.367-.361.524.306 1.145.265 1.659-.11.513-.372.742-.948.614-1.541-.116-.54.227-1.072.767-1.188.543-.119 1.072.227 1.188.767.295 1.37-.239 2.742-1.394 3.581-.636.461-1.366.694-2.096.694z" fill="#000000" data-original="#541491" class=""></path>
        </g>
      </g>
      <g xmlns="http://www.w3.org/2000/svg" id="ARC_267_">
        <g>
          <path d="m53.156 30.507c-.275 0-.548-.112-.746-.333-.368-.412-.333-1.044.079-1.412.452-.404.604-1.006.408-1.61-.196-.603-.673-1-1.277-1.062-.549-.057-.949-.548-.893-1.097s.537-.945 1.097-.894c1.395.144 2.535 1.076 2.976 2.435s.066 2.784-.978 3.718c-.191.171-.429.255-.666.255z" fill="#000000" data-original="#541491" class=""></path>
        </g>
      </g>
      <g xmlns="http://www.w3.org/2000/svg" id="ARC_266_">
        <g>
          <path d="m34.32 13.451c-.384 0-.75-.222-.915-.596-.245-.554-.771-.885-1.406-.885-.634 0-1.159.331-1.402.884-.223.505-.812.734-1.318.512-.505-.223-.734-.813-.512-1.318.564-1.28 1.803-2.076 3.231-2.077h.001c1.43 0 2.669.796 3.235 2.076.223.505-.005 1.096-.51 1.319-.131.058-.268.085-.404.085z" fill="#000000" data-original="#541491" class=""></path>
        </g>
      </g>
    </g>
    <g transform="matrix(1.305394, 0, 0, 1.305394, 18.467209, 256.595428)">
      <linearGradient xmlns="http://www.w3.org/2000/svg" id="gradient-1" gradientUnits="userSpaceOnUse" x1="13.567" x2="47.989" y1="24.809" y2="44.682">
        <stop stop-opacity="1" stop-color="#fffedd" offset="0"></stop>
        <stop stop-opacity="1" stop-color="#e9a800" offset="1"></stop>
      </linearGradient>
      <path xmlns="http://www.w3.org/2000/svg" d="m20.011 51.029c-.164 0-.345-.094-.463-.239-.135-.167-.123-.315-.102-.413.737-3.387 1.659-6.798 2.736-10.132.684-2.083-.057-4.353-1.845-5.639-2.839-2.071-5.586-4.29-8.154-6.587-.198-.178-.179-.402-.127-.56.042-.13.154-.353.428-.381 3.471-.351 7-.529 10.486-.529 2.2 0 4.126-1.402 4.794-3.49 1.049-3.243 2.311-6.544 3.746-9.804.108-.246.353-.283.489-.283s.381.037.49.285c1.435 3.258 2.696 6.559 3.747 9.808.684 2.087 2.609 3.484 4.792 3.484 3.486 0 7.016.179 10.489.53.259.027.377.223.428.382.042.13.082.375-.125.562-2.586 2.305-5.337 4.524-8.171 6.591-1.777 1.278-2.518 3.548-1.832 5.64 1.075 3.324 1.997 6.736 2.736 10.132.021.094.033.238-.097.399-.118.146-.302.24-.468.24-.078 0-.15-.021-.228-.065-2.994-1.734-5.954-3.661-8.797-5.729-.865-.631-1.891-.965-2.963-.965s-2.098.334-2.968.968c-2.83 2.057-5.787 3.984-8.787 5.728-.079.045-.154.067-.234.067z" fill="url(#gradient-1)" data-original="url(#SVGID_1_)"></path>
      <g xmlns="http://www.w3.org/2000/svg" id="g-1">
        <g>
          <path d="m22.968 25.553c-.552 0-1-.447-1-1s.448-1 1-1c.888 0 1.669-.567 1.943-1.411.17-.525.732-.813 1.26-.643.525.171.813.734.642 1.26-.542 1.671-2.087 2.794-3.845 2.794z" fill="#000000" data-original="#541491" class=""></path>
        </g>
      </g>
      <g xmlns="http://www.w3.org/2000/svg" id="g-2">
        <g>
          <path d="m12.278 26.095c-.507 0-.941-.384-.994-.898-.056-.55.344-1.04.894-1.097 3.568-.363 7.189-.547 10.762-.547.544-.017 1.028.438 1.028 1 0 .553-.448 1-1 1-.004-.008-.019 0-.028 0-3.505 0-7.058.181-10.56.537-.034.003-.068.005-.102.005z" fill="#000000" data-original="#541491" class=""></path>
        </g>
      </g>
      <g xmlns="http://www.w3.org/2000/svg" id="g-3">
        <g>
          <path d="m25.862 23.45c-.102 0-.206-.016-.309-.049-.525-.171-.813-.734-.643-1.26 1.108-3.414 2.406-6.811 3.855-10.095.223-.504.813-.734 1.319-.511.505.224.734.813.511 1.319-1.422 3.222-2.695 6.554-3.783 9.903-.136.425-.528.693-.95.693z" fill="#000000" data-original="#541491" class=""></path>
        </g>
      </g>
      <g xmlns="http://www.w3.org/2000/svg" id="g-4">
        <g>
          <path d="m41.033 25.553c-1.757 0-3.302-1.123-3.845-2.794-.17-.525.117-1.089.642-1.26.528-.171 1.09.117 1.26.643.274.844 1.055 1.411 1.943 1.411.552 0 1 .447 1 1s-.448 1-1 1z" fill="#000000" data-original="#541491" class=""></path>
        </g>
      </g>
      <g xmlns="http://www.w3.org/2000/svg" id="g-5">
        <g>
          <path d="m38.139 23.45c-.422 0-.814-.269-.951-.691-1.087-3.35-2.36-6.682-3.783-9.903-.223-.506.006-1.096.511-1.319.505-.224 1.096.007 1.319.511 1.449 3.284 2.747 6.681 3.855 10.095.17.525-.117 1.089-.643 1.26-.102.032-.206.047-.308.047z" fill="#000000" data-original="#541491" class=""></path>
        </g>
      </g>
      <g xmlns="http://www.w3.org/2000/svg" id="g-6">
        <g>
          <path d="m51.723 26.095c-.034 0-.068-.002-.102-.005-3.501-.356-7.054-.537-10.56-.537-.588-.003-1.028-.438-1.028-1s.452-1.017 1.028-1c3.573 0 7.193.184 10.762.547.55.057.95.547.894 1.097-.053.514-.488.898-.994.898z" fill="#000000" data-original="#541491" class=""></path>
        </g>
      </g>
      <g xmlns="http://www.w3.org/2000/svg" id="g-7">
        <g>
          <path d="m43.721 40.631c-.422 0-.814-.269-.951-.691-.543-1.672.048-3.488 1.47-4.521.446-.324 1.073-.226 1.396.222.325.447.225 1.072-.222 1.397-.718.521-1.017 1.439-.742 2.284.17.525-.117 1.089-.642 1.26-.103.033-.207.049-.309.049z" fill="#000000" data-original="#541491" class=""></path>
        </g>
      </g>
      <g xmlns="http://www.w3.org/2000/svg" id="g-8">
        <g>
          <path d="m44.828 37.229c-.31 0-.614-.143-.81-.412-.325-.447-.226-1.072.221-1.397 2.845-2.066 5.621-4.306 8.25-6.657.411-.368 1.044-.333 1.412.078.369.412.333 1.044-.079 1.412-2.679 2.396-5.508 4.68-8.407 6.786-.178.128-.384.19-.587.19z" fill="#000000" data-original="#541491" class=""></path>
        </g>
      </g>
      <g xmlns="http://www.w3.org/2000/svg" id="g-9">
        <g>
          <path d="m46.508 50.964c-.461 0-.875-.32-.977-.789-.745-3.446-1.674-6.891-2.762-10.234-.17-.525.117-1.09.642-1.261.526-.17 1.089.117 1.26.642 1.108 3.409 2.055 6.918 2.814 10.432.117.54-.227 1.071-.766 1.188-.07.015-.141.022-.211.022z" fill="#000000" data-original="#541491" class=""></path>
        </g>
      </g>
      <g xmlns="http://www.w3.org/2000/svg" id="g-10">
        <g>
          <path d="m33.789 47.847c-.204 0-.409-.063-.587-.191-.719-.521-1.684-.521-2.402 0-.448.325-1.072.226-1.397-.221s-.226-1.072.221-1.396c1.422-1.033 3.332-1.033 4.754 0 .447.324.546.95.221 1.396-.196.269-.501.412-.81.412z" fill="#000000" data-original="#541491" class=""></path>
        </g>
      </g>
      <g xmlns="http://www.w3.org/2000/svg" id="g-11">
        <g>
          <path d="m42.754 53.69c-.171 0-.344-.044-.502-.136-3.103-1.805-6.148-3.789-9.051-5.899-.447-.324-.546-.95-.221-1.396.325-.447.949-.545 1.397-.221 2.848 2.069 5.836 4.017 8.881 5.788.477.277.639.89.361 1.367-.185.32-.52.497-.865.497z" fill="#000000" data-original="#541491" class=""></path>
        </g>
      </g>
      <g xmlns="http://www.w3.org/2000/svg" id="g-12">
        <g>
          <path d="m21.247 53.69c-.345 0-.68-.178-.865-.497-.278-.478-.116-1.09.361-1.367 3.045-1.771 6.033-3.719 8.881-5.788.447-.324 1.072-.227 1.397.221.325.446.226 1.072-.221 1.396-2.903 2.11-5.948 4.095-9.051 5.899-.159.092-.332.136-.502.136z" fill="#000000" data-original="#541491" class=""></path>
        </g>
      </g>
      <g xmlns="http://www.w3.org/2000/svg" id="g-13">
        <g>
          <path d="m20.28 40.631c-.102 0-.206-.016-.309-.049-.525-.171-.813-.734-.642-1.26.274-.845-.024-1.763-.742-2.284-.447-.325-.546-.95-.222-1.397.323-.447.949-.546 1.396-.222 1.422 1.032 2.013 2.849 1.47 4.521-.137.422-.529.691-.951.691z" fill="#000000" data-original="#541491" class=""></path>
        </g>
      </g>
      <g xmlns="http://www.w3.org/2000/svg" id="g-14">
        <g>
          <path d="m17.493 50.964c-.07 0-.141-.007-.212-.022-.54-.117-.883-.648-.766-1.188.759-3.514 1.706-7.022 2.814-10.432.171-.524.738-.81 1.26-.642.525.171.813.735.642 1.261-1.088 3.344-2.017 6.788-2.762 10.234-.101.469-.515.789-.976.789z" fill="#000000" data-original="#541491" class=""></path>
        </g>
      </g>
      <g xmlns="http://www.w3.org/2000/svg" id="g-15">
        <g>
          <path d="m19.173 37.229c-.204 0-.409-.062-.587-.19-2.899-2.106-5.728-4.39-8.407-6.786-.412-.368-.447-1-.079-1.412.368-.411 1-.446 1.412-.078 2.629 2.352 5.405 4.591 8.25 6.657.447.325.546.95.221 1.397-.195.269-.5.412-.81.412z" fill="#000000" data-original="#541491" class=""></path>
        </g>
      </g>
      <g xmlns="http://www.w3.org/2000/svg" id="g-16">
        <g>
          <path d="m10.845 30.507c-.237 0-.476-.084-.667-.255-1.044-.935-1.419-2.359-.977-3.718.442-1.36 1.583-2.293 2.977-2.435.543-.052 1.04.345 1.096.895.056.549-.345 1.04-.894 1.096-.603.061-1.081.458-1.277 1.063-.196.604-.043 1.205.409 1.609.412.368.446 1.001.078 1.412-.196.221-.47.333-.745.333z" fill="#000000" data-original="#541491" class=""></path>
        </g>
      </g>
      <g xmlns="http://www.w3.org/2000/svg" id="g-17">
        <g>
          <path d="m20.003 54.03c-.728 0-1.456-.232-2.09-.692-1.159-.841-1.694-2.215-1.399-3.585.117-.54.644-.886 1.188-.767.54.116.883.648.767 1.188-.128.593.104 1.171.619 1.545.513.372 1.13.41 1.654.106.477-.277 1.089-.117 1.368.361.278.477.116 1.089-.361 1.367-.546.32-1.146.477-1.746.477z" fill="#000000" data-original="#541491" class=""></path>
        </g>
      </g>
      <g xmlns="http://www.w3.org/2000/svg" id="g-18">
        <g>
          <path d="m43.997 54.029c-.599 0-1.198-.157-1.744-.475-.477-.277-.639-.89-.361-1.367.277-.478.889-.64 1.367-.361.524.306 1.145.265 1.659-.11.513-.372.742-.948.614-1.541-.116-.54.227-1.072.767-1.188.543-.119 1.072.227 1.188.767.295 1.37-.239 2.742-1.394 3.581-.636.461-1.366.694-2.096.694z" fill="#000000" data-original="#541491" class=""></path>
        </g>
      </g>
      <g xmlns="http://www.w3.org/2000/svg" id="g-19">
        <g>
          <path d="m53.156 30.507c-.275 0-.548-.112-.746-.333-.368-.412-.333-1.044.079-1.412.452-.404.604-1.006.408-1.61-.196-.603-.673-1-1.277-1.062-.549-.057-.949-.548-.893-1.097s.537-.945 1.097-.894c1.395.144 2.535 1.076 2.976 2.435s.066 2.784-.978 3.718c-.191.171-.429.255-.666.255z" fill="#000000" data-original="#541491" class=""></path>
        </g>
      </g>
      <g xmlns="http://www.w3.org/2000/svg" id="g-20">
        <g>
          <path d="m34.32 13.451c-.384 0-.75-.222-.915-.596-.245-.554-.771-.885-1.406-.885-.634 0-1.159.331-1.402.884-.223.505-.812.734-1.318.512-.505-.223-.734-.813-.512-1.318.564-1.28 1.803-2.076 3.231-2.077h.001c1.43 0 2.669.796 3.235 2.076.223.505-.005 1.096-.51 1.319-.131.058-.268.085-.404.085z" fill="#000000" data-original="#541491" class=""></path>
        </g>
      </g>
    </g>
    <g transform="matrix(1.305394, 0, 0, 1.305394, 18.467211, 329.469543)">
      <linearGradient xmlns="http://www.w3.org/2000/svg" id="gradient-2" gradientUnits="userSpaceOnUse" x1="13.567" x2="47.989" y1="24.809" y2="44.682">
        <stop stop-opacity="1" stop-color="#fffedd" offset="0"></stop>
        <stop stop-opacity="1" stop-color="#e9a800" offset="1"></stop>
      </linearGradient>
      <path xmlns="http://www.w3.org/2000/svg" d="m20.011 51.029c-.164 0-.345-.094-.463-.239-.135-.167-.123-.315-.102-.413.737-3.387 1.659-6.798 2.736-10.132.684-2.083-.057-4.353-1.845-5.639-2.839-2.071-5.586-4.29-8.154-6.587-.198-.178-.179-.402-.127-.56.042-.13.154-.353.428-.381 3.471-.351 7-.529 10.486-.529 2.2 0 4.126-1.402 4.794-3.49 1.049-3.243 2.311-6.544 3.746-9.804.108-.246.353-.283.489-.283s.381.037.49.285c1.435 3.258 2.696 6.559 3.747 9.808.684 2.087 2.609 3.484 4.792 3.484 3.486 0 7.016.179 10.489.53.259.027.377.223.428.382.042.13.082.375-.125.562-2.586 2.305-5.337 4.524-8.171 6.591-1.777 1.278-2.518 3.548-1.832 5.64 1.075 3.324 1.997 6.736 2.736 10.132.021.094.033.238-.097.399-.118.146-.302.24-.468.24-.078 0-.15-.021-.228-.065-2.994-1.734-5.954-3.661-8.797-5.729-.865-.631-1.891-.965-2.963-.965s-2.098.334-2.968.968c-2.83 2.057-5.787 3.984-8.787 5.728-.079.045-.154.067-.234.067z" fill="url(#gradient-2)" data-original="url(#SVGID_1_)"></path>
      <g xmlns="http://www.w3.org/2000/svg" id="g-21">
        <g>
          <path d="m22.968 25.553c-.552 0-1-.447-1-1s.448-1 1-1c.888 0 1.669-.567 1.943-1.411.17-.525.732-.813 1.26-.643.525.171.813.734.642 1.26-.542 1.671-2.087 2.794-3.845 2.794z" fill="#000000" data-original="#541491" class=""></path>
        </g>
      </g>
      <g xmlns="http://www.w3.org/2000/svg" id="g-22">
        <g>
          <path d="m12.278 26.095c-.507 0-.941-.384-.994-.898-.056-.55.344-1.04.894-1.097 3.568-.363 7.189-.547 10.762-.547.544-.017 1.028.438 1.028 1 0 .553-.448 1-1 1-.004-.008-.019 0-.028 0-3.505 0-7.058.181-10.56.537-.034.003-.068.005-.102.005z" fill="#000000" data-original="#541491" class=""></path>
        </g>
      </g>
      <g xmlns="http://www.w3.org/2000/svg" id="g-23">
        <g>
          <path d="m25.862 23.45c-.102 0-.206-.016-.309-.049-.525-.171-.813-.734-.643-1.26 1.108-3.414 2.406-6.811 3.855-10.095.223-.504.813-.734 1.319-.511.505.224.734.813.511 1.319-1.422 3.222-2.695 6.554-3.783 9.903-.136.425-.528.693-.95.693z" fill="#000000" data-original="#541491" class=""></path>
        </g>
      </g>
      <g xmlns="http://www.w3.org/2000/svg" id="g-24">
        <g>
          <path d="m41.033 25.553c-1.757 0-3.302-1.123-3.845-2.794-.17-.525.117-1.089.642-1.26.528-.171 1.09.117 1.26.643.274.844 1.055 1.411 1.943 1.411.552 0 1 .447 1 1s-.448 1-1 1z" fill="#000000" data-original="#541491" class=""></path>
        </g>
      </g>
      <g xmlns="http://www.w3.org/2000/svg" id="g-25">
        <g>
          <path d="m38.139 23.45c-.422 0-.814-.269-.951-.691-1.087-3.35-2.36-6.682-3.783-9.903-.223-.506.006-1.096.511-1.319.505-.224 1.096.007 1.319.511 1.449 3.284 2.747 6.681 3.855 10.095.17.525-.117 1.089-.643 1.26-.102.032-.206.047-.308.047z" fill="#000000" data-original="#541491" class=""></path>
        </g>
      </g>
      <g xmlns="http://www.w3.org/2000/svg" id="g-26">
        <g>
          <path d="m51.723 26.095c-.034 0-.068-.002-.102-.005-3.501-.356-7.054-.537-10.56-.537-.588-.003-1.028-.438-1.028-1s.452-1.017 1.028-1c3.573 0 7.193.184 10.762.547.55.057.95.547.894 1.097-.053.514-.488.898-.994.898z" fill="#000000" data-original="#541491" class=""></path>
        </g>
      </g>
      <g xmlns="http://www.w3.org/2000/svg" id="g-27">
        <g>
          <path d="m43.721 40.631c-.422 0-.814-.269-.951-.691-.543-1.672.048-3.488 1.47-4.521.446-.324 1.073-.226 1.396.222.325.447.225 1.072-.222 1.397-.718.521-1.017 1.439-.742 2.284.17.525-.117 1.089-.642 1.26-.103.033-.207.049-.309.049z" fill="#000000" data-original="#541491" class=""></path>
        </g>
      </g>
      <g xmlns="http://www.w3.org/2000/svg" id="g-28">
        <g>
          <path d="m44.828 37.229c-.31 0-.614-.143-.81-.412-.325-.447-.226-1.072.221-1.397 2.845-2.066 5.621-4.306 8.25-6.657.411-.368 1.044-.333 1.412.078.369.412.333 1.044-.079 1.412-2.679 2.396-5.508 4.68-8.407 6.786-.178.128-.384.19-.587.19z" fill="#000000" data-original="#541491" class=""></path>
        </g>
      </g>
      <g xmlns="http://www.w3.org/2000/svg" id="g-29">
        <g>
          <path d="m46.508 50.964c-.461 0-.875-.32-.977-.789-.745-3.446-1.674-6.891-2.762-10.234-.17-.525.117-1.09.642-1.261.526-.17 1.089.117 1.26.642 1.108 3.409 2.055 6.918 2.814 10.432.117.54-.227 1.071-.766 1.188-.07.015-.141.022-.211.022z" fill="#000000" data-original="#541491" class=""></path>
        </g>
      </g>
      <g xmlns="http://www.w3.org/2000/svg" id="g-30">
        <g>
          <path d="m33.789 47.847c-.204 0-.409-.063-.587-.191-.719-.521-1.684-.521-2.402 0-.448.325-1.072.226-1.397-.221s-.226-1.072.221-1.396c1.422-1.033 3.332-1.033 4.754 0 .447.324.546.95.221 1.396-.196.269-.501.412-.81.412z" fill="#000000" data-original="#541491" class=""></path>
        </g>
      </g>
      <g xmlns="http://www.w3.org/2000/svg" id="g-31">
        <g>
          <path d="m42.754 53.69c-.171 0-.344-.044-.502-.136-3.103-1.805-6.148-3.789-9.051-5.899-.447-.324-.546-.95-.221-1.396.325-.447.949-.545 1.397-.221 2.848 2.069 5.836 4.017 8.881 5.788.477.277.639.89.361 1.367-.185.32-.52.497-.865.497z" fill="#000000" data-original="#541491" class=""></path>
        </g>
      </g>
      <g xmlns="http://www.w3.org/2000/svg" id="g-32">
        <g>
          <path d="m21.247 53.69c-.345 0-.68-.178-.865-.497-.278-.478-.116-1.09.361-1.367 3.045-1.771 6.033-3.719 8.881-5.788.447-.324 1.072-.227 1.397.221.325.446.226 1.072-.221 1.396-2.903 2.11-5.948 4.095-9.051 5.899-.159.092-.332.136-.502.136z" fill="#000000" data-original="#541491" class=""></path>
        </g>
      </g>
      <g xmlns="http://www.w3.org/2000/svg" id="g-33">
        <g>
          <path d="m20.28 40.631c-.102 0-.206-.016-.309-.049-.525-.171-.813-.734-.642-1.26.274-.845-.024-1.763-.742-2.284-.447-.325-.546-.95-.222-1.397.323-.447.949-.546 1.396-.222 1.422 1.032 2.013 2.849 1.47 4.521-.137.422-.529.691-.951.691z" fill="#000000" data-original="#541491" class=""></path>
        </g>
      </g>
      <g xmlns="http://www.w3.org/2000/svg" id="g-34">
        <g>
          <path d="m17.493 50.964c-.07 0-.141-.007-.212-.022-.54-.117-.883-.648-.766-1.188.759-3.514 1.706-7.022 2.814-10.432.171-.524.738-.81 1.26-.642.525.171.813.735.642 1.261-1.088 3.344-2.017 6.788-2.762 10.234-.101.469-.515.789-.976.789z" fill="#000000" data-original="#541491" class=""></path>
        </g>
      </g>
      <g xmlns="http://www.w3.org/2000/svg" id="g-35">
        <g>
          <path d="m19.173 37.229c-.204 0-.409-.062-.587-.19-2.899-2.106-5.728-4.39-8.407-6.786-.412-.368-.447-1-.079-1.412.368-.411 1-.446 1.412-.078 2.629 2.352 5.405 4.591 8.25 6.657.447.325.546.95.221 1.397-.195.269-.5.412-.81.412z" fill="#000000" data-original="#541491" class=""></path>
        </g>
      </g>
      <g xmlns="http://www.w3.org/2000/svg" id="g-36">
        <g>
          <path d="m10.845 30.507c-.237 0-.476-.084-.667-.255-1.044-.935-1.419-2.359-.977-3.718.442-1.36 1.583-2.293 2.977-2.435.543-.052 1.04.345 1.096.895.056.549-.345 1.04-.894 1.096-.603.061-1.081.458-1.277 1.063-.196.604-.043 1.205.409 1.609.412.368.446 1.001.078 1.412-.196.221-.47.333-.745.333z" fill="#000000" data-original="#541491" class=""></path>
        </g>
      </g>
      <g xmlns="http://www.w3.org/2000/svg" id="g-37">
        <g>
          <path d="m20.003 54.03c-.728 0-1.456-.232-2.09-.692-1.159-.841-1.694-2.215-1.399-3.585.117-.54.644-.886 1.188-.767.54.116.883.648.767 1.188-.128.593.104 1.171.619 1.545.513.372 1.13.41 1.654.106.477-.277 1.089-.117 1.368.361.278.477.116 1.089-.361 1.367-.546.32-1.146.477-1.746.477z" fill="#000000" data-original="#541491" class=""></path>
        </g>
      </g>
      <g xmlns="http://www.w3.org/2000/svg" id="g-38">
        <g>
          <path d="m43.997 54.029c-.599 0-1.198-.157-1.744-.475-.477-.277-.639-.89-.361-1.367.277-.478.889-.64 1.367-.361.524.306 1.145.265 1.659-.11.513-.372.742-.948.614-1.541-.116-.54.227-1.072.767-1.188.543-.119 1.072.227 1.188.767.295 1.37-.239 2.742-1.394 3.581-.636.461-1.366.694-2.096.694z" fill="#000000" data-original="#541491" class=""></path>
        </g>
      </g>
      <g xmlns="http://www.w3.org/2000/svg" id="g-39">
        <g>
          <path d="m53.156 30.507c-.275 0-.548-.112-.746-.333-.368-.412-.333-1.044.079-1.412.452-.404.604-1.006.408-1.61-.196-.603-.673-1-1.277-1.062-.549-.057-.949-.548-.893-1.097s.537-.945 1.097-.894c1.395.144 2.535 1.076 2.976 2.435s.066 2.784-.978 3.718c-.191.171-.429.255-.666.255z" fill="#000000" data-original="#541491" class=""></path>
        </g>
      </g>
      <g xmlns="http://www.w3.org/2000/svg" id="g-40">
        <g>
          <path d="m34.32 13.451c-.384 0-.75-.222-.915-.596-.245-.554-.771-.885-1.406-.885-.634 0-1.159.331-1.402.884-.223.505-.812.734-1.318.512-.505-.223-.734-.813-.512-1.318.564-1.28 1.803-2.076 3.231-2.077h.001c1.43 0 2.669.796 3.235 2.076.223.505-.005 1.096-.51 1.319-.131.058-.268.085-.404.085z" fill="#000000" data-original="#541491" class=""></path>
        </g>
      </g>
    </g>
  </g>
</svg>